<svg width="276" height="276" viewBox="0 0 276 276" fill="none" xmlns="http://www.w3.org/2000/svg">
<path fill-rule="evenodd" clip-rule="evenodd" d="M51.25 33.3768C75.4364 27.5499 116.517 32.5505 129.254 57.8197C135.21 69.6352 133.456 89.5648 125.615 100.48C121.655 105.992 117.728 109.739 111.922 113.409C103.276 118.873 96.7227 119.665 93.1972 122.11C103.763 124.629 106.778 123.409 117.674 129.9C149.053 148.591 160.165 221.265 79.6902 235.251C70.6674 236.819 48.5447 237.495 41.5703 234.237C43.1214 240.043 59.8054 250.983 65.4414 254.733C83.8311 266.968 106.631 273.901 129.576 275.378H148.118C156.881 274.806 165.495 273.414 173.714 271.193C192.111 266.224 216.255 254.508 230.936 239.683C238.795 231.747 245.153 225.542 251.639 216.018C255.768 209.954 266.143 192.568 266.631 186.644C258.783 186.644 252.376 185.829 244.851 185.837L198.934 185.9C190.739 186.861 182.298 186.196 177.091 187.451L176.61 183.169C178.01 182.742 186.62 181.907 188.386 181.806C190.525 181.683 198.365 180.998 199.955 180.467C201.957 174.468 200.484 80.3744 200.484 65.6433C195.907 66.0409 182.103 73.7099 167.411 73.7099C167.406 68.2614 168.425 69.5985 174.025 68.2243C191.348 63.9738 223.264 51.3372 231.944 38.2166C227.135 30.9512 203.616 16.5683 195.095 12.9528C179.155 6.18975 162.84 1.10282 144.018 1.10963H128.551C125.166 1.2661 121.542 1.68956 114.976 2.72213C105.707 4.17913 98.7127 6.60306 90.2802 9.48571C83.2725 11.8812 53.0858 26.5192 51.25 33.3768Z" fill="#FF6600" stroke="#2B2A29" stroke-width="0.755906" stroke-miterlimit="22.9256"/>
<path fill-rule="evenodd" clip-rule="evenodd" d="M33.505 50.3164C46.7344 50.5965 54.6506 65.8722 46.5643 77.0891C41.0186 84.7819 31.0812 86.6 22.273 83.3288C19.3049 82.2267 17.4003 80.2866 15.0207 78.4807L12.0474 83.7127C11.3373 85.4762 10.4203 87.7292 9.80275 89.5347C5.13201 103.195 2.18467 116.098 1.23828 129.299V147.922C1.53762 152.17 2.04107 156.493 2.7588 160.923C3.50866 165.555 4.35984 169.885 5.59537 174.22C6.72242 178.176 7.77012 183.309 10.1807 186.713C20.1617 180.864 34.2242 181.671 39.7223 192.527C45.46 203.856 38.7078 216.187 26.2452 217.297C40.3258 238.821 88.9317 240.38 94.9056 195.611C97.8098 173.843 98.862 132.388 68.8351 127.92C67.8714 127.777 62.1285 127.074 61.7373 127.072C57.9381 127.058 52.7605 129.782 49.394 128.808L48.7186 126.163C49.4212 125.621 49.0857 125.588 50.1897 125.081C51.9698 124.263 50.9161 124.83 52.6868 124.352C54.4133 123.886 55.9677 123.377 57.7052 122.917C60.9665 122.054 63.4202 121.286 66.5856 119.697C72.561 116.698 76.9354 114.085 80.7898 108.895C91.0932 95.0203 93.5896 44.2477 69.034 37.3742C54.9613 33.4356 35.7663 41.9614 33.505 50.3164Z" fill="#FF6600" stroke="#2B2A29" stroke-width="0.755906" stroke-miterlimit="22.9256"/>
<path fill-rule="evenodd" clip-rule="evenodd" d="M250.224 180.467C251.985 181.055 265.92 182.561 268.248 182.611C272.596 173.215 274.897 160.019 275.507 146.48V131.452C275.095 122.168 273.926 113.339 272.122 106.136C268.991 93.6344 257.497 63.9446 249.694 58.3831C249.694 73.9196 248.148 174.247 250.224 180.467Z" fill="#FF6600" stroke="#2B2A29" stroke-width="0.755906" stroke-miterlimit="22.9256"/>
</svg>
