<svg width="219" height="189" viewBox="0 0 219 189" fill="none" xmlns="http://www.w3.org/2000/svg">
<path fill-rule="evenodd" clip-rule="evenodd" d="M115.027 84.2005C115.027 70.0099 132.196 66.1681 132.196 86.0084C132.196 97.5401 115.027 99.1229 115.027 84.2005ZM180.087 123.96L163.822 127.574C163.438 132.194 158.824 140.397 156.594 142.032C155.66 138.024 151.469 130.718 149.364 127.574H115.931V107.695C129.476 107.695 141.571 108.664 146.341 94.7321C150.187 83.5047 148.03 68.2309 138.848 63.09C129.977 58.1229 122.438 60.8669 115.931 65.2244V61.6106C110.388 61.7335 108.811 64.3214 98.7615 64.3214C102.817 81.7276 100.568 107.156 100.568 127.574C96.2628 127.574 94.8361 126.492 94.2223 130.265L93.3398 138.418H100.568C100.568 156.98 98.1382 167.643 112.096 171.169C118.166 172.701 120.325 171.41 125.87 170.948C126.265 166.207 127.677 165.221 127.677 159.201H118.641L116.124 156.296L115.931 138.418H137.617L144.741 152.98C151.881 172.086 140.182 173.608 138.476 176.332C133.169 184.807 144.087 193.109 152.795 184.318C157.637 179.429 161.017 169.61 164.111 163.104L171.34 147.743C174.269 141.585 180.591 129.556 181.894 123.96H180.087Z" fill="#9E9E9E" stroke="#2B2A29" stroke-width="0.755906" stroke-miterlimit="22.9256"/>
<path fill-rule="evenodd" clip-rule="evenodd" d="M70.7496 95.0438C60.7618 95.0438 61.1568 79.482 65.0973 74.9334C69.6086 69.724 79.7861 72.9643 79.7861 83.2975C79.7861 89.2419 76.6185 95.0438 70.7496 95.0438ZM62.6168 65.2243V61.6105C56.4109 62.1272 54.3476 64.3213 46.3516 64.3213C46.5874 67.1476 47.2557 67.5309 47.2557 70.646V124.863C11.9398 124.863 14.1384 171.852 45.4488 171.852C59.128 171.852 61.7139 172.587 61.7139 157.393C56.971 157.788 37.3163 165.517 37.3163 148.358C37.3163 129.46 53.7777 141.128 56.2922 141.128C59.6095 141.128 60.6594 139.728 62.6168 138.417V107.695C71.2595 107.695 83.0901 108.55 89.0859 102.537C100.091 91.4983 96.032 60.7065 79.7861 60.7065C65.1986 60.7065 69.708 63.3311 62.6168 65.2243Z" fill="#9E9E9E" stroke="#2B2A29" stroke-width="0.755906" stroke-miterlimit="22.9256"/>
<path fill-rule="evenodd" clip-rule="evenodd" d="M20.1478 95.9476H18.3411L16.4838 92.3597C17.9983 90.1461 19.181 88.7193 22.8588 88.7193H25.5695C25.4757 92.9327 24.2463 95.9476 20.1478 95.9476ZM1.17188 94.8626V89.4245C2.59789 82.8266 9.63845 76.9719 26.4736 76.9719C24.9217 73.7381 26.6357 74.0411 23.7032 72.47C15.8395 68.2577 10.1614 84.2198 2.97881 70.646C4.11229 65.7814 4.41552 65.0088 8.68147 62.7944C11.642 61.2565 14.26 59.8025 18.3411 59.8025C47.2821 59.8025 41.8347 78.4062 41.8347 106.791C39.1282 107.422 35.0874 108.75 30.7874 106.091C28.3957 104.612 29.0191 103.234 26.4736 101.369C25.7392 103.398 25.9334 102.738 24.5652 103.98C22.0326 106.278 18.151 107.695 14.7264 107.695C8.50298 107.695 2.51247 101.614 1.17188 94.8626Z" fill="#9E9E9E" stroke="#2B2A29" stroke-width="0.755906" stroke-miterlimit="22.9256"/>
<path fill-rule="evenodd" clip-rule="evenodd" d="M190.932 77.8759C192.193 73.1489 197.811 72.0135 203.582 73.3572C203.497 77.1439 203.875 77.6783 200.045 77.9527C197.548 78.1311 193.609 77.8759 190.932 77.8759ZM172.859 84.2006C172.859 98.0397 182.043 105.354 194.52 106.819C201.367 107.623 200.962 106.791 208.1 106.791C209.364 91.6085 213.85 95.044 202.679 95.044C197.979 95.044 192.263 94.6128 190.932 89.6223C204.763 89.6223 218.04 91.6062 218.04 74.2612C218.04 70.0923 214.479 66.0665 211.908 64.1283C198.319 53.8956 172.859 63.0677 172.859 84.2006Z" fill="#9E9E9E" stroke="#2B2A29" stroke-width="0.755906" stroke-miterlimit="22.9256"/>
<path fill-rule="evenodd" clip-rule="evenodd" d="M152.076 1.06787C138.205 1.06787 125.032 7.65823 116.987 18.3876C110.922 26.4731 103.958 43.6839 108.122 45.9539C109.015 46.4415 115.597 45.1909 117.223 44.8299C124.925 43.1246 133.268 38.3208 138.764 32.9365C140.822 30.9205 141.969 29.3581 143.711 27.0397C149.173 19.774 152.076 11.0231 152.076 1.06787Z" fill="#9E9E9E" stroke="#2B2A29" stroke-width="0.755906" stroke-miterlimit="22.9256"/>
<path fill-rule="evenodd" clip-rule="evenodd" d="M151.172 42.6348C154.534 49.6401 152.978 79.6976 152.978 92.3329C152.978 110.44 150.166 107.695 165.629 107.695C169.792 107.695 168.34 101.058 168.34 93.2369V39.02C162.789 40.3134 157.913 42.0731 151.172 42.6348Z" fill="#9E9E9E" stroke="#2B2A29" stroke-width="0.755906" stroke-miterlimit="22.9256"/>
<path fill-rule="evenodd" clip-rule="evenodd" d="M72.5569 151.972V170.948H87.0139V125.767C82.2679 126.162 82.8111 127.614 73.3925 128.459C67.1918 129.016 71.4139 127.985 71.6966 134.754L72.5569 151.972Z" fill="#9E9E9E" stroke="#2B2A29" stroke-width="0.755906" stroke-miterlimit="22.9256"/>
<path fill-rule="evenodd" clip-rule="evenodd" d="M70.75 116.731C70.75 127.81 88.8229 129.255 88.8229 116.731C88.8229 104.707 70.75 106.015 70.75 116.731Z" fill="#9E9E9E" stroke="#2B2A29" stroke-width="0.755906" stroke-miterlimit="22.9256"/>
<path fill-rule="evenodd" clip-rule="evenodd" d="M161.113 118.539C161.113 114.572 162.198 114.455 164.728 113.117C175.26 118.69 161.113 124.568 161.113 118.539ZM158.402 111.309V128.478H161.113V123.056C175.67 126.541 173.381 109.163 163.077 111.408C159.902 112.101 162.711 111.667 158.402 111.309Z" fill="#9E9E9E" stroke="#2B2A29" stroke-width="0.755906" stroke-miterlimit="22.9256"/>
<path fill-rule="evenodd" clip-rule="evenodd" d="M137.619 118.539C137.619 111.095 143.943 111.159 143.943 118.539C143.943 122.393 137.619 122.393 137.619 118.539ZM134.004 117.635C134.004 120.312 136.401 122.142 137.619 123.96H143.943C145.161 122.142 147.558 120.312 147.558 117.635C147.558 114.06 144.75 111.079 141.071 110.869C140.059 110.811 137.484 111.455 136.244 112.64C135.49 113.362 134.004 116.396 134.004 117.635Z" fill="#9E9E9E" stroke="#2B2A29" stroke-width="0.755906" stroke-miterlimit="22.9256"/>
<path fill-rule="evenodd" clip-rule="evenodd" d="M121.355 116.731C121.355 120.836 123.285 121.445 124.969 123.961C132.837 123.961 132.213 124.58 133.102 121.249C126.281 121.249 124.969 122.56 124.969 116.731C124.969 114.986 126.581 113.117 127.68 113.117C131.833 113.117 131.635 117.708 133.102 112.213C126.97 109.271 121.355 112.157 121.355 116.731Z" fill="#9E9E9E" stroke="#2B2A29" stroke-width="0.755906" stroke-miterlimit="22.9256"/>
<path fill-rule="evenodd" clip-rule="evenodd" d="M180.088 123.96C181.865 121.306 181.895 122.162 181.895 117.635C178.561 116.035 177.795 117.056 175.57 114.02C178.122 112.796 178.168 113.362 180.992 114.02V111.309C176.452 111.309 176.305 111.41 172.859 112.213V116.731C174.579 117.882 173.085 117.186 174.487 117.814C178.796 119.741 178.211 117.605 179.184 121.249C175.383 121.249 175.534 121.63 172.859 120.346L173.873 123.925L180.088 123.96Z" fill="#9E9E9E" stroke="#2B2A29" stroke-width="0.755906" stroke-miterlimit="22.9256"/>
<path fill-rule="evenodd" clip-rule="evenodd" d="M149.363 123.96H152.074C152.074 119.087 151.45 115.393 156.593 114.02V111.309C155.539 111.332 153.04 111.662 152.805 111.669C151.799 111.694 151.588 111.495 149.363 111.309V123.96Z" fill="#9E9E9E" stroke="#2B2A29" stroke-width="0.755906" stroke-miterlimit="22.9256"/>
<path fill-rule="evenodd" clip-rule="evenodd" d="M215.328 57.9959C214.277 59.2541 216.959 58.8146 213.426 58.8902C208.782 58.9884 212.088 58.8369 210.81 57.9959C207.924 55.9916 208.094 54.5632 210.81 52.5741C212.469 51.3189 208.76 51.7641 212.712 51.6798C217.233 51.5835 214.173 51.701 215.328 52.5741L216.53 56.4856C215.47 58.0193 216.032 57.186 215.328 57.9959ZM207.195 55.2849C211.332 63.1028 212.157 61.9342 218.039 57.9959V52.5741C213.775 49.719 211.477 47.194 207.195 55.2849Z" fill="#9E9E9E" stroke="#2B2A29" stroke-width="0.755906" stroke-miterlimit="22.9256"/>
<path fill-rule="evenodd" clip-rule="evenodd" d="M212.62 54.3813C212.62 52.1986 214.076 54.0706 213.197 54.3813C213.185 54.3855 212.62 56.9714 212.62 54.3813ZM210.812 57.9961C214.324 57.2523 211.818 57.2523 215.33 57.9961C214.334 55.5862 215.235 56.8303 215.33 52.5742H210.812V57.9961Z" fill="#9E9E9E" stroke="#2B2A29" stroke-width="0.755906" stroke-miterlimit="22.9256"/>
</svg>
