<svg width="320" height="97" viewBox="0 0 320 97" fill="none" xmlns="http://www.w3.org/2000/svg">
<path fill-rule="evenodd" clip-rule="evenodd" d="M32.5625 91.9718C33.36 92.9235 36.4294 94.421 37.9284 95.1107C40.7097 96.389 41.4304 97.1675 44.2359 95.7426C64.5154 85.4453 76.887 67.581 81.4402 44.7817C83.6735 33.5947 83.288 22.9932 83.3375 11.0952C82.5185 12.35 82.9384 13.5912 81.1023 16.9833C80.1854 18.6765 78.6852 20.1397 77.2736 21.1526C73.6894 23.7238 69.5981 24.3024 64.4123 24.2903C53.8288 24.268 43.2409 24.2843 32.6041 24.2889L32.6124 43.5327L65.8727 43.547C66.3092 46.8371 65.955 53.8753 65.1212 56.8808C61.3141 70.6148 44.5592 65.9932 32.6041 66.9445L32.5625 91.9718Z" stroke="#2B2A29" stroke-width="0.755906" stroke-miterlimit="22.9256"/>
<path fill-rule="evenodd" clip-rule="evenodd" d="M32.5623 91.9718L32.604 66.9445C44.559 65.9932 61.3139 70.6149 65.121 56.8808C65.9548 53.8753 66.3091 46.8371 65.8725 43.5471L32.6122 43.5327L32.604 24.2889C43.2407 24.2844 53.8287 24.2681 64.4121 24.2904C69.598 24.3025 73.6893 23.7238 77.2734 21.1526C78.6851 20.1397 80.1852 18.6766 81.1021 16.9833C82.9382 13.5912 82.5183 12.35 83.3373 11.0952L83.3177 0.936279H0.534967C0.595818 28.8814 -1.14725 44.1717 10.2839 67.8248C12.0093 71.3953 14.1005 74.1393 16.2461 77.2086C19.0657 81.241 28.1399 90.2491 32.5623 91.9718Z" fill="#FF6600" stroke="#2B2A29" stroke-width="0.755906" stroke-miterlimit="22.9256"/>
<path fill-rule="evenodd" clip-rule="evenodd" d="M259.174 14.5263C238.044 18.6331 242.29 50.6533 265.616 47.5885C274.314 46.4451 280.871 38.3596 279.318 27.7932C278.066 19.2715 269.613 12.4982 259.174 14.5263ZM260.55 21.617C249.269 24.3345 252.786 43.3803 264.861 40.4028C269.09 39.3596 272.186 34.6005 271.25 28.8265C270.493 24.1444 266.149 20.2689 260.55 21.617Z" fill="#FF6600" stroke="#2B2A29" stroke-width="0.755906" stroke-miterlimit="22.9256"/>
<path fill-rule="evenodd" clip-rule="evenodd" d="M213.562 47.2653H225.38C235.497 47.2653 242.206 40.9154 241.973 30.6358C241.742 20.4837 235.202 14.6696 224.74 14.6696H213.562V47.2653ZM221.463 40.5397C227.186 40.5378 233.721 40.571 233.737 30.9581C233.754 21.5997 227.568 21.4322 221.546 21.4175L221.463 40.5397Z" fill="#FF6600" stroke="#2B2A29" stroke-width="0.755906" stroke-miterlimit="22.9256"/>
<path fill-rule="evenodd" clip-rule="evenodd" d="M283.496 47.2633L291.348 47.2335L292.646 27.4201L297.83 42.1319L304.632 42.141L309.849 27.4258L311.161 47.2679L319.004 47.2653L316.351 14.6741L307.739 14.6695C306.755 17.8171 305.683 20.9495 304.522 24.1799C303.413 27.2636 302.532 30.5926 301.368 33.8479L294.776 14.6656L286.145 14.6845L283.496 47.2633Z" fill="#FF6600" stroke="#2B2A29" stroke-width="0.755906" stroke-miterlimit="22.9256"/>
<path fill-rule="evenodd" clip-rule="evenodd" d="M131.012 47.5881L138.976 47.5892L138.986 36.6003L142.66 36.4503C145.241 39.5718 147.101 47.5878 149.687 47.5904L157.224 47.4717C155.082 43.3437 152.224 37.9322 149.864 34.1523C150.952 32.7554 152.555 32.5452 153.803 29.299C154.73 26.885 154.916 23.74 154.043 21.1968C151.203 12.9196 141.259 14.6465 131.013 14.6465L131.012 47.5881ZM139.138 20.8098L139.099 29.1122L143.602 29.034C143.602 29.034 145.64 28.4849 146.07 27.5064C146.501 26.5278 146.813 26.4095 146.853 24.6471C146.892 22.885 146.539 22.6501 145.874 21.9059C145.208 21.1617 144.895 21.083 143.641 20.8876C142.388 20.6922 139.138 20.8098 139.138 20.8098Z" fill="#FF6600" stroke="#2B2A29" stroke-width="0.755906" stroke-miterlimit="22.9256"/>
<path fill-rule="evenodd" clip-rule="evenodd" d="M161.141 47.2672C166.507 47.2653 177.445 47.4699 182.184 47.1955L182.183 40.6221L169.09 40.5397L169.174 34.2257L178.989 34.2104L178.973 27.5914L169.088 27.5253L169.153 21.4179L181.624 21.4187V14.6696H161.144L161.141 47.2672Z" fill="#FF6600" stroke="#2B2A29" stroke-width="0.755906" stroke-miterlimit="22.9256"/>
<path fill-rule="evenodd" clip-rule="evenodd" d="M187.355 47.2653H208.456L208.457 40.5397H195.359L195.419 34.2282H205.263L205.202 27.5226L195.359 27.5253L195.392 21.4187L207.736 21.4061L207.734 14.75L187.355 14.6696V47.2653Z" fill="#FF6600" stroke="#2B2A29" stroke-width="0.755906" stroke-miterlimit="22.9256"/>
<path fill-rule="evenodd" clip-rule="evenodd" d="M106.551 47.2464H114.352L114.375 35.2571C118.893 34.3825 124.296 37.4223 124.309 28.5392L114.378 28.3519L114.362 21.5529C121.724 20.173 126.447 24.5213 126.447 14.6696H106.57L106.551 47.2464Z" fill="#FF6600" stroke="#2B2A29" stroke-width="0.755906" stroke-miterlimit="22.9256"/>
<path fill-rule="evenodd" clip-rule="evenodd" d="M106.529 81.2048C112.352 81.2059 120.862 82.2275 123.174 77.573C125.78 72.3244 121.823 70.0506 120.548 68.9647C121.31 67.8418 122.124 67.6907 122.684 65.8984C124.068 61.4673 120.959 57.958 115.196 57.958H106.527L106.529 81.2048ZM112.186 71.1917L112.23 76.1085L115.928 75.9781C115.928 75.9781 117.756 75.8039 117.886 73.7157C118.016 71.6271 116.449 71.2794 116.058 71.2355C115.666 71.1917 112.186 71.1917 112.186 71.1917ZM112.186 62.4164L112.225 66.8433L115.555 66.7258C115.555 66.7258 117.201 66.5693 117.318 64.689C117.436 62.8086 116.025 62.4958 115.672 62.4561C115.32 62.4164 112.186 62.4164 112.186 62.4164Z" fill="#FF6600" stroke="#2B2A29" stroke-width="0.755906" stroke-miterlimit="22.9256"/>
<path fill-rule="evenodd" clip-rule="evenodd" d="M149.031 81.1041L154.556 81.1048L154.929 67.5133L158.698 74.0042C160.023 76.2231 161.871 78.8742 162.827 81.0588L168.551 81.1041V57.9889L162.984 57.9901L163.134 72.2861L156.708 61.3088C154.167 57.1823 156.289 57.9889 149.031 57.9889V81.1041Z" fill="#FF6600" stroke="#2B2A29" stroke-width="0.755906" stroke-miterlimit="22.9256"/>
<path fill-rule="evenodd" clip-rule="evenodd" d="M124.875 80.9583L130.671 81.1485L132.066 76.2596C136.527 76.2517 138.858 75.6178 139.629 77.1013L140.767 81.0824L146.576 81.134C145.622 77.2793 143.936 73.3044 142.607 69.362C141.929 67.3494 141.348 65.6066 140.675 63.6167L139.211 59.3523C138.545 57.5483 139.36 57.9581 132.675 57.9577L124.875 80.9583ZM135.755 62.5891L133.222 71.6501L138.25 71.5718L135.755 62.5891Z" fill="#FF6600" stroke="#2B2A29" stroke-width="0.755906" stroke-miterlimit="22.9256"/>
<path fill-rule="evenodd" clip-rule="evenodd" d="M173.52 81.1783L179.088 81.1776V71.856C182.475 71.8001 181.513 71.6025 185.336 78.9923C185.537 79.3816 185.753 79.8793 185.995 80.2315C186.888 81.5362 187.87 81.3496 191.525 81.1769L192.661 81.0698C191.459 78.2197 186.971 71.1554 186.435 69.5827C185.937 68.1253 191.479 60.7159 192.28 57.989H186.374C186.124 58.6935 182.158 66.9691 180.986 66.971C178.485 66.9737 179.145 68.117 179.145 57.9883L173.52 57.9902V81.1783Z" fill="#FF6600" stroke="#2B2A29" stroke-width="0.755906" stroke-miterlimit="22.9256"/>
</svg>
