<svg width="220" height="220" viewBox="0 0 220 220" fill="none" xmlns="http://www.w3.org/2000/svg">
<path fill-rule="evenodd" clip-rule="evenodd" d="M100.587 98.8301L100.289 100.173C96.6295 98.3504 100.004 103.553 99.6501 99.3527C99.6142 98.9253 100.278 99.0093 100.587 98.8301ZM111.631 119.801L110.438 115.655L108.149 119.569C108.661 123.949 109.655 121.175 107.235 125.06L106.364 123.284C105.803 120.557 106.227 123.955 106.096 120.924C106.061 120.109 106.354 117.728 106.398 116.727C107.073 101.237 104.292 109.4 100.289 100.173C103.326 101.323 100.66 99.3184 104.391 102.365C109.896 103.279 106.352 103.121 107.233 101.173L108.616 96.1311L111.959 96.0933L112.582 100.995C112.1 103.648 111.627 102.87 114.472 102.929C121.786 99.2504 115.662 100.894 119.553 90.4035C124.239 77.7655 121.85 77.061 138.633 77.1793C141.516 80.1028 149.401 93.6752 147.266 98.575C142.458 94.684 144.193 92.0843 138.982 85.7208C138.986 92.8293 139.166 99.9261 139.344 107.029C139.424 110.256 139.535 113.493 139.617 116.717C139.834 125.246 139.405 123.113 137.604 125.36C133.238 122.58 134.159 115.207 133.034 104.095C131.777 107.668 131.46 111.473 131.146 115.551C130.164 128.288 130.438 123.666 127.941 125.36C126.597 123.632 126.725 126.574 125.883 120.921L126.393 85.9728L121.629 93.9366C119.649 97.8534 120.426 98.2525 120.343 100.811C106.984 112.372 118.607 119.545 112.133 125.176L111.631 119.801ZM80.924 87.7477L78.9379 87.468C78.4707 91.6917 76.4634 97.2014 71.7745 98.3182C72.956 91.2713 78.0254 79.6708 83.7684 76.789C86.4674 78.8805 85.5733 77.5134 87.2189 81.4933L90.6706 76.7912C97.4583 79.3257 100.314 90.441 103.008 97.855L100.587 98.8301L93.5291 86.4597L96.5263 104.651L92.9063 107.029C92.5473 112.866 93.0158 120.898 90.6706 125.189C86.3601 119.04 90.77 111.989 86.6976 105.646C86.5207 109.223 86.3045 112.786 86.1427 116.364C85.5989 128.42 85.3468 123.09 83.0973 125.066L82.071 106.608L78.2062 104.262L80.924 87.7477ZM133.349 65.5233C137.744 65.7391 139.445 71.272 136.51 74.223C132.428 78.3272 124.019 73.1719 129.579 67.4274C130.255 66.7293 127.76 65.2478 133.349 65.5233ZM84.1982 67.4274C90.5414 61.1107 95.1498 70.4987 91.2191 74.4279C87.1406 78.5042 78.1615 73.4372 84.1982 67.4274ZM57.5416 144.3C84.3343 130.123 63.6353 124.863 113.889 137.647C124.791 140.42 121.4 140.104 122.42 142.919C115.306 146.333 110.718 142.795 100.342 144.211C92.7294 145.25 94.7249 145.937 93.4312 147.06C100.447 147.06 99.7268 145.68 105.855 145.68C111.904 145.68 114.845 147.847 119.155 146.646C126.126 144.706 124.225 142.511 123.8 137.398C126.12 136.778 148.647 119.49 148.647 129.116C148.647 135.485 133.853 146.488 126.086 150.727C119.121 154.529 114.851 159.484 105.855 159.484C94.9408 159.484 85.5763 149.233 69.9653 156.723C81.2533 173.581 125.258 179.357 148.309 159.146C153.721 154.401 158.061 151.726 162.928 143.396C165.424 139.125 166.144 137.728 167.984 133.268C181.358 100.84 166.366 66.8685 135.787 52.2508C121.595 45.4662 107.538 45.2227 92.2973 49.2997C60.8108 57.7231 39.0046 92.759 50.4441 129.312C52.8864 137.117 54.306 138.185 57.5416 144.3Z" fill="#FF6600"/>
<path d="M100.587 98.8301L100.289 100.173M100.587 98.8301C100.278 99.0093 99.6142 98.9253 99.6501 99.3527C100.004 103.553 96.6295 98.3504 100.289 100.173M100.587 98.8301L103.008 97.855C100.314 90.441 97.4583 79.3257 90.6706 76.7912L87.2189 81.4933C85.5733 77.5134 86.4674 78.8805 83.7684 76.789C78.0254 79.6708 72.956 91.2713 71.7745 98.3182C76.4634 97.2014 78.4707 91.6917 78.9379 87.468L80.924 87.7477L78.2062 104.262L82.071 106.608L83.0973 125.066C85.3468 123.09 85.5989 128.42 86.1427 116.364C86.3045 112.786 86.5207 109.223 86.6976 105.646C90.77 111.989 86.3601 119.04 90.6706 125.189C93.0158 120.898 92.5473 112.866 92.9063 107.029L96.5263 104.651L93.5291 86.4597L100.587 98.8301ZM100.289 100.173C104.292 109.4 107.073 101.237 106.398 116.727C106.354 117.728 106.061 120.109 106.096 120.924C106.227 123.955 105.803 120.557 106.364 123.284L107.235 125.06C109.655 121.175 108.661 123.949 108.149 119.569L110.438 115.655L111.631 119.801L112.133 125.176C118.607 119.545 106.984 112.372 120.343 100.811C120.426 98.2525 119.649 97.8534 121.629 93.9366L126.393 85.9728L125.883 120.921C126.725 126.574 126.597 123.632 127.941 125.36C130.438 123.666 130.164 128.288 131.146 115.551C131.46 111.473 131.777 107.668 133.034 104.095C134.159 115.207 133.238 122.58 137.604 125.36C139.405 123.113 139.834 125.246 139.617 116.717C139.535 113.493 139.424 110.256 139.344 107.029C139.166 99.9261 138.986 92.8293 138.982 85.7208C144.193 92.0843 142.458 94.684 147.266 98.575C149.401 93.6752 141.516 80.1028 138.633 77.1793C121.85 77.061 124.239 77.7655 119.553 90.4035C115.662 100.894 121.786 99.2504 114.472 102.929C111.627 102.87 112.1 103.648 112.582 100.995L111.959 96.0933L108.616 96.1311L107.233 101.173C106.352 103.121 109.896 103.279 104.391 102.365C100.66 99.3184 103.326 101.323 100.289 100.173ZM133.349 65.5233C137.744 65.7391 139.445 71.272 136.51 74.223C132.428 78.3272 124.019 73.1719 129.579 67.4274C130.255 66.7293 127.76 65.2478 133.349 65.5233ZM84.1982 67.4274C90.5414 61.1107 95.1498 70.4987 91.2191 74.4279C87.1406 78.5042 78.1615 73.4372 84.1982 67.4274ZM57.5416 144.3C84.3343 130.123 63.6353 124.863 113.889 137.647C124.791 140.42 121.4 140.104 122.42 142.919C115.306 146.333 110.718 142.795 100.342 144.211C92.7294 145.25 94.7249 145.937 93.4312 147.06C100.447 147.06 99.7268 145.68 105.855 145.68C111.904 145.68 114.845 147.847 119.155 146.646C126.126 144.706 124.225 142.511 123.8 137.398C126.12 136.778 148.647 119.49 148.647 129.116C148.647 135.485 133.853 146.488 126.086 150.727C119.121 154.529 114.851 159.484 105.855 159.484C94.9408 159.484 85.5763 149.233 69.9653 156.723C81.2533 173.581 125.258 179.357 148.309 159.146C153.721 154.401 158.061 151.726 162.928 143.396C165.424 139.125 166.144 137.728 167.984 133.268C181.358 100.84 166.366 66.8685 135.787 52.2508C121.595 45.4662 107.538 45.2227 92.2973 49.2997C60.8108 57.7231 39.0046 92.759 50.4441 129.312C52.8864 137.117 54.306 138.185 57.5416 144.3Z" stroke="#2B2A29" stroke-width="0.755906" stroke-miterlimit="22.9256"/>
<path fill-rule="evenodd" clip-rule="evenodd" d="M7.84766 152.582C15.8682 152.582 23.4658 151.239 30.0422 149.929C40.9321 147.763 41.9488 148.757 46.4982 140.158C41.8891 130.553 40.6754 127.266 22.1966 140.703C19.8654 142.399 17.1023 144.331 15.1021 146.033L9.3323 151.306C9.14446 151.463 8.73926 151.814 8.58732 151.941C8.43538 152.069 8.0937 152.368 7.84766 152.582Z" fill="#FF6600" stroke="#2B2A29" stroke-width="0.755906" stroke-miterlimit="22.9256"/>
<path fill-rule="evenodd" clip-rule="evenodd" d="M79.6268 46.2924C89.2325 41.6833 92.5192 40.4697 79.0822 21.9905C77.3863 19.6593 75.4543 16.8964 73.7523 14.8959C72.465 13.3833 71.7162 12.9497 70.337 11.4088L67.2031 7.64185C67.2031 15.662 68.5467 23.26 69.8559 29.8364C72.0227 40.7263 71.0284 41.7426 79.6268 46.2924Z" fill="#FF6600" stroke="#2B2A29" stroke-width="0.755906" stroke-miterlimit="22.9256"/>
<path fill-rule="evenodd" clip-rule="evenodd" d="M180.395 105.649V113.932C188.127 119.109 185.995 118.619 203.556 115.007C208.311 114.029 213.966 111.593 219.045 111.171V108.41C204.164 107.171 193.88 96.6186 180.395 105.649Z" fill="#FF6600" stroke="#2B2A29" stroke-width="0.755906" stroke-miterlimit="22.9256"/>
<path fill-rule="evenodd" clip-rule="evenodd" d="M105.856 39.3902H114.138C119.316 31.658 118.825 33.7905 115.213 16.2296C114.235 11.4739 111.8 5.81931 111.377 0.739624H108.617C107.378 15.6215 96.8251 25.9048 105.856 39.3902Z" fill="#FF6600" stroke="#2B2A29" stroke-width="0.755906" stroke-miterlimit="22.9256"/>
<path fill-rule="evenodd" clip-rule="evenodd" d="M0.945312 108.41V111.171C15.8268 112.41 26.1101 122.962 39.5959 113.932V105.649C31.8633 100.471 33.9957 100.962 16.4349 104.574C11.6795 105.552 6.02462 107.987 0.945312 108.41Z" fill="#FF6600" stroke="#2B2A29" stroke-width="0.755906" stroke-miterlimit="22.9256"/>
<path fill-rule="evenodd" clip-rule="evenodd" d="M156.93 165.006C156.93 171.103 172.737 179.397 177.915 182.671C181.534 184.959 182.687 186.018 187.299 187.092C185.814 180.723 171.439 156.723 166.592 156.723C161.017 156.723 156.93 159.729 156.93 165.006Z" fill="#FF6600" stroke="#2B2A29" stroke-width="0.755906" stroke-miterlimit="22.9256"/>
<path fill-rule="evenodd" clip-rule="evenodd" d="M101.715 187.092C102.955 192.411 103.575 197.49 104.781 203.351C105.759 208.106 108.195 213.761 108.617 218.841H111.378C112.617 203.959 123.169 193.676 114.139 180.19H105.856C104.018 182.935 103.343 184.015 101.715 187.092Z" fill="#FF6600" stroke="#2B2A29" stroke-width="0.755906" stroke-miterlimit="22.9256"/>
<path fill-rule="evenodd" clip-rule="evenodd" d="M132.082 181.571C132.082 185.087 138.717 194.576 140.908 197.59L152.787 211.939C152.787 203.918 151.444 196.321 150.135 189.744C147.968 178.854 148.962 177.838 140.364 173.288C136.298 175.239 132.082 175.554 132.082 181.571Z" fill="#FF6600" stroke="#2B2A29" stroke-width="0.755906" stroke-miterlimit="22.9256"/>
<path fill-rule="evenodd" clip-rule="evenodd" d="M173.492 79.4223C178.101 89.0279 179.315 92.3146 197.794 78.8776L212.143 66.9985C204.123 66.9985 196.525 68.3421 189.948 69.6513C179.058 71.8181 178.042 70.8235 173.492 79.4223Z" fill="#FF6600" stroke="#2B2A29" stroke-width="0.755906" stroke-miterlimit="22.9256"/>
<path fill-rule="evenodd" clip-rule="evenodd" d="M74.1053 176.049C72.7356 181.927 70.734 185.872 69.9939 192.644C69.4969 197.197 68.7236 207.39 67.2031 210.558C77.9491 207.689 103.284 164.723 74.1053 176.049Z" fill="#FF6600" stroke="#2B2A29" stroke-width="0.755906" stroke-miterlimit="22.9256"/>
<path fill-rule="evenodd" clip-rule="evenodd" d="M132.082 38.0099C132.082 47.9262 140.819 44.7125 145.885 43.5314C147.255 37.6539 149.257 33.7085 149.997 26.9371C150.494 22.3835 151.267 12.1909 152.787 9.02209C148.121 10.2682 144.023 16.145 140.336 21.417C137.788 25.0597 132.082 32.4271 132.082 38.0099Z" fill="#FF6600" stroke="#2B2A29" stroke-width="0.755906" stroke-miterlimit="22.9256"/>
<path fill-rule="evenodd" clip-rule="evenodd" d="M32.6953 187.092C39.0646 185.608 63.0643 171.232 63.0643 166.386C63.0643 161.361 58.0583 145.546 41.7995 169.969C38.8836 174.348 33.808 182.317 32.6953 187.092Z" fill="#FF6600" stroke="#2B2A29" stroke-width="0.755906" stroke-miterlimit="22.9256"/>
<path fill-rule="evenodd" clip-rule="evenodd" d="M53.4015 62.8572C58.4272 62.8572 74.2415 57.8513 49.8189 41.5925C45.44 38.6766 37.4704 33.601 32.6953 32.4883C34.1799 38.8572 48.5554 62.8572 53.4015 62.8572Z" fill="#FF6600" stroke="#2B2A29" stroke-width="0.755906" stroke-miterlimit="22.9256"/>
<path fill-rule="evenodd" clip-rule="evenodd" d="M156.93 53.1945C156.93 58.2197 161.936 74.0345 178.194 49.6119C180.26 46.5108 180.999 44.842 182.877 41.8717C185.165 38.2532 186.224 37.0997 187.299 32.4883C180.929 33.9729 156.93 48.348 156.93 53.1945Z" fill="#FF6600" stroke="#2B2A29" stroke-width="0.755906" stroke-miterlimit="22.9256"/>
<path fill-rule="evenodd" clip-rule="evenodd" d="M38.2139 87.7039C48.1306 87.7039 44.9166 78.9667 43.7359 73.9006C37.8579 72.5309 33.9125 70.5293 27.1411 69.7889C22.5875 69.2919 12.3949 68.519 9.22656 66.9985C10.4825 71.7033 11.1938 71.3876 14.7428 73.9052C17.6874 75.9945 18.7021 77.4085 21.6211 79.4502C25.2638 81.9976 32.6316 87.7039 38.2139 87.7039Z" fill="#FF6600" stroke="#2B2A29" stroke-width="0.755906" stroke-miterlimit="22.9256"/>
<path fill-rule="evenodd" clip-rule="evenodd" d="M174.875 137.398L176.256 145.68C182.133 147.049 186.079 149.051 192.85 149.791C197.404 150.288 207.596 151.062 210.765 152.582C208.599 144.471 174.875 121.401 174.875 137.398Z" fill="#FF6600" stroke="#2B2A29" stroke-width="0.755906" stroke-miterlimit="22.9256"/>
<path fill-rule="evenodd" clip-rule="evenodd" d="M100.29 100.173L100.588 98.8301C100.279 99.0092 99.6152 98.9253 99.6511 99.3527C100.005 103.553 96.6305 98.3504 100.29 100.173Z" fill="#FF6600" stroke="#2B2A29" stroke-width="0.755906" stroke-miterlimit="22.9256"/>
</svg>
