<svg width="651" height="173" viewBox="0 0 651 173" fill="none" xmlns="http://www.w3.org/2000/svg">
<path fill-rule="evenodd" clip-rule="evenodd" d="M1.33748 62.6975L80.8705 62.6381C80.7269 60.4135 78.0846 49.3716 77.2527 46.4821L73.2842 31.4352C72.2184 26.3026 70.5728 21.1999 69.4983 16.6112C68.245 11.2624 66.7486 6.44433 65.7501 1.18361L15.978 1.15674C14.7315 11.0485 0.640916 57.2999 1.33748 62.6975Z" fill="#9E9E9E" stroke="#2B2A29" stroke-width="0.755906" stroke-miterlimit="22.9256"/>
<path fill-rule="evenodd" clip-rule="evenodd" d="M203.977 149.571C206.695 135.448 197.026 104.296 216.054 104.267C232.655 104.241 224.328 128.057 226.932 150.058C229.537 150.076 235.501 150.39 237.924 149.752L238.831 149.355C240.205 146.458 239.445 128.555 239.445 123.754C239.444 110.067 239.097 93.6845 218.834 92.3398C207.461 91.585 203.765 98.3773 200.865 99.781C198.812 99.0565 197.724 96.4822 194.336 94.6949C180.822 87.5644 172.454 97.0711 169.34 99.1305L169.16 94.3252C165.784 93.0901 160.262 93.8987 156.449 93.7725L156.666 149.942C160.605 150.259 165.858 150.51 169.208 149.645C169.636 140.662 169.284 130.59 169.271 121.426C169.259 113.675 170.471 104.872 180.486 104.264C192.399 103.539 191.378 114.807 191.378 122.008C191.378 127.254 190.74 146.056 191.771 149.73C195.202 150.538 201.259 150.548 203.977 149.571Z" fill="#9E9E9E" stroke="#2B2A29" stroke-width="0.755906" stroke-miterlimit="22.9256"/>
<path fill-rule="evenodd" clip-rule="evenodd" d="M402.399 124.918C400.156 98.7264 434.159 98.918 436.466 119.104C437.743 130.283 431.476 137.255 422.179 139.012C412.179 140.901 403.127 133.418 402.399 124.918ZM436.801 100.712C433.019 97.7182 430.18 94.2729 423.608 92.9296C392.044 86.4795 374.301 130.891 405.414 148.502C410.386 151.316 417.466 152.085 423.771 150.627C432.242 148.669 433.956 144.533 436.75 143.327L436.749 150.067L447.928 149.703C448.017 149.517 448.25 149.612 448.4 149.542C450.69 147.568 449.482 100.601 449.482 91.1698C449.482 89.0158 450.223 74.1029 448.827 72.5506C447.042 71.0921 439.964 70.9834 436.867 71.9627L436.801 100.712Z" fill="#9E9E9E" stroke="#2B2A29" stroke-width="0.755906" stroke-miterlimit="22.9256"/>
<path fill-rule="evenodd" clip-rule="evenodd" d="M264.48 124.336C261.84 100.526 296.184 97.2347 298.896 119.883C301.655 142.931 266.917 146.324 264.48 124.336ZM264.469 100.876L264.452 93.7379C247.873 94.7165 251.677 86.4337 251.677 133.064C251.677 141.282 250.349 166.522 252.659 172.048L264.413 172.206C264.58 163.982 264.413 155.729 264.419 147.542C264.421 145.642 263.811 143.573 265.606 144.092C265.845 144.16 277.777 158.264 298.144 147.189C302.978 144.561 307.493 138.476 309.571 133.458C317.977 113.162 302.068 89.9751 280.703 92.465C272.178 93.4586 268.287 96.7457 264.469 100.876Z" fill="#9E9E9E" stroke="#2B2A29" stroke-width="0.755906" stroke-miterlimit="22.9256"/>
<path fill-rule="evenodd" clip-rule="evenodd" d="M506.46 126.081C500.902 147.8 467.973 141.131 472.935 117.558C474.7 109.17 483.197 102.661 493.848 104.956C502.062 106.726 509.168 115.499 506.46 126.081ZM506.709 143.137L506.931 149.705C510.401 150.552 516.801 150.619 519.183 149.429C520.443 146.589 520.472 97.8363 519.304 94.3066C516.23 93.1871 510.599 93.7382 506.782 93.9408L506.695 100.786C489.462 82.3998 460.173 95.7357 459.586 121.41C459.438 127.873 461.409 134.175 464.108 138.049C467.142 142.402 470.79 145.955 475.316 148.391C480.1 150.967 486.629 152.101 493.183 150.831C498.666 149.767 500.342 148.676 503.776 145.65C504.907 144.653 505.733 144.246 506.709 143.137Z" fill="#9E9E9E" stroke="#2B2A29" stroke-width="0.755906" stroke-miterlimit="22.9256"/>
<path fill-rule="evenodd" clip-rule="evenodd" d="M345.014 104.901C367.68 99.4672 375.031 134.271 352.75 138.807C329.575 143.524 323.552 110.046 345.014 104.901ZM366.47 143.236L366.415 150.089C370.184 150.045 375.54 150.688 378.5 149.606C379.633 146.57 379.603 96.3511 378.289 94.89C377.519 94.0354 378.693 93.7091 373.111 93.8093C370.842 93.8501 368.6 93.8372 366.332 93.7851L366.409 100.785C365.094 100.018 365.142 99.5976 363.954 98.5552C363.048 97.76 362.061 97.0399 361.001 96.2689C346.814 85.9463 319.075 95.9724 318.95 121.416C318.857 140.217 334.542 154.409 352.833 150.707C355.576 150.152 358.209 149.096 360.431 147.795C362.386 146.652 364.363 144.183 366.47 143.236Z" fill="#9E9E9E" stroke="#2B2A29" stroke-width="0.755906" stroke-miterlimit="22.9256"/>
<path fill-rule="evenodd" clip-rule="evenodd" d="M108.853 104.949C131.364 99.2328 139.211 133.716 117.098 138.789C94.5104 143.97 86.8036 110.548 108.853 104.949ZM130.287 100.919C123.34 91.6757 109.319 90.4473 99.358 94.9385C90.7509 98.8197 82.8876 109.361 83.0735 121.419C83.374 140.941 98.6969 154.32 117.129 150.654C124.419 149.204 126.06 146.598 130.256 143.021L130.4 150.007C132.558 150.073 134.717 150.067 136.876 150.093C142.718 150.165 141.214 149.827 141.968 149.14C144.286 147.3 143.023 139.305 143.023 135.973C143.023 131.318 143.023 126.664 143.023 122.009C143.023 87.9552 146.098 94.4356 130.268 93.7553L130.287 100.919Z" fill="#9E9E9E" stroke="#2B2A29" stroke-width="0.755906" stroke-miterlimit="22.9256"/>
<path fill-rule="evenodd" clip-rule="evenodd" d="M618.048 104.927C632.989 101.4 643.687 121.043 634.286 132.413C627.178 141.012 615.602 140.11 609.953 135.349C600.201 127.131 600.591 109.047 618.048 104.927ZM650.434 122.008C651.203 110.45 643.429 99.7141 633.279 95.0649C621.7 89.7614 608.199 92.6374 600.034 100.495C595.404 104.951 591.232 111.524 591.01 120.839C590.299 150.759 626.237 159.972 641.804 142.833C647.565 136.491 649.694 133.138 650.434 122.008Z" fill="#9E9E9E" stroke="#2B2A29" stroke-width="0.755906" stroke-miterlimit="22.9256"/>
<path fill-rule="evenodd" clip-rule="evenodd" d="M35.2682 71.6245C32.7223 76.0995 34.3712 141.342 35.4007 150.059C36.7576 150.068 78.3713 150.858 79.5585 149.356C80.2131 147.325 80.0124 145.728 80.0207 143.536C80.0479 136.421 79.6934 136.89 72.2761 136.938L47.9998 136.981L47.8116 73.1877C47.3641 71.5897 47.984 72.8309 47.0595 71.6475L35.2682 71.6245Z" fill="#9E9E9E" stroke="#2B2A29" stroke-width="0.755906" stroke-miterlimit="22.9256"/>
<path fill-rule="evenodd" clip-rule="evenodd" d="M542.389 149.92C544.336 134.379 538.349 115.984 547.849 109.455C550.998 107.29 553.015 107.003 556.497 106.564L559.802 105.907L559.815 93.4885C550.919 91.7651 546.475 96.4605 542.656 102.023L542.605 93.7726C528.28 94.2908 529.752 91.8526 529.752 99.8981C529.752 109.076 528.754 143.493 530.64 150.054L542.389 149.92Z" fill="#9E9E9E" stroke="#2B2A29" stroke-width="0.755906" stroke-miterlimit="22.9256"/>
<path fill-rule="evenodd" clip-rule="evenodd" d="M580.559 149.334C581.923 131.054 580.476 112.097 580.404 93.8719C567.075 93.7811 567.766 92.2886 567.824 101.061C567.923 116.062 567.279 136.508 567.909 150.033L580.559 149.334Z" fill="#9E9E9E" stroke="#2B2A29" stroke-width="0.755906" stroke-miterlimit="22.9256"/>
<path fill-rule="evenodd" clip-rule="evenodd" d="M572.2 70.6451C570.255 71.2596 571.312 70.3829 569.463 71.6786C567.21 73.2584 565.557 77.1803 566.524 80.3744C569.452 90.0481 584.642 86.5038 582.088 76.0723C581.143 72.2111 577.016 69.1235 572.2 70.6451Z" fill="#9E9E9E" stroke="#2B2A29" stroke-width="0.755906" stroke-miterlimit="22.9256"/>
</svg>
