<svg width="315" height="67" viewBox="0 0 315 67" fill="none" xmlns="http://www.w3.org/2000/svg">
<path fill-rule="evenodd" clip-rule="evenodd" d="M59.837 42.1011L59.3475 42.3L59.3365 41.775C59.4729 37.4791 59.2682 35.5319 61.2691 32.0657C64.5814 26.3257 71.3958 24.2726 77.1778 26.6484C79.238 27.495 82.3535 30.3176 82.8584 32.5903L59.837 42.1011ZM97.6277 36.7935C97.3555 30.7334 93.1549 23.8898 90.1929 21.2876C76.44 9.20516 51.6433 14.3908 46.9314 34.2496C45.3345 40.9805 46.6641 48.4088 49.6722 53.4193C56.2097 64.3092 69.9354 67.9266 82.1561 64.6804C86.7962 63.4479 94.0019 60.0539 96.6397 56.4996L88.0742 49.8651C82.5168 53.8234 75.8504 56.6677 68.3503 54.1626C64.9896 53.0401 64.8217 52.2779 63.2475 51.0295L97.6277 36.7935Z" fill="#FF6600" stroke="#2B2A29" stroke-width="0.755906" stroke-miterlimit="22.9256"/>
<path fill-rule="evenodd" clip-rule="evenodd" d="M196.844 40.6566C196.844 48.2678 191.155 54.4722 183.427 54.1626C176.105 53.8693 170.603 47.8089 170.69 40.1769C170.902 21.6266 196.844 22.3629 196.844 40.6566ZM157.312 40.8962C157.312 61.2244 181.159 72.578 198.735 61.4704C200.309 60.4756 202.928 58.2676 203.928 57.091C210.502 49.3547 212.274 38.3056 207.728 29.2952C206.95 27.7524 206.316 26.7207 205.391 25.4009C203.776 23.0935 201.212 20.7444 198.852 19.2383C181.997 8.48517 157.312 18.411 157.312 40.8962Z" fill="#FF6600" stroke="#2B2A29" stroke-width="0.755906" stroke-miterlimit="22.9256"/>
<path fill-rule="evenodd" clip-rule="evenodd" d="M274.65 40.1774C274.65 32.4146 280.149 26.3651 287.894 26.5306C295.183 26.6867 300.825 32.853 300.825 40.1774C300.825 59.1385 274.65 58.3954 274.65 40.1774ZM287.887 65.813C307.432 65.813 319.826 46.3505 311.726 29.2666C310.738 27.183 309.356 25.3589 308.008 23.6434C307.112 22.5043 304.343 20.1962 302.833 19.238C285.098 7.98904 261.293 19.893 261.293 39.6981C261.293 47.2564 263.778 53.8365 269.111 58.7136C273.455 62.6881 279.779 65.813 287.887 65.813Z" fill="#FF6600" stroke="#2B2A29" stroke-width="0.755906" stroke-miterlimit="22.9256"/>
<path fill-rule="evenodd" clip-rule="evenodd" d="M116.047 64.8847C116.047 56.569 116.047 48.2534 116.047 39.9376C116.047 34.4486 116.52 30.0832 122.374 27.5147C127.054 25.4609 133.414 27.1366 135.976 30.3644C138.403 33.422 138.447 35.3508 138.447 40.1773C138.447 48.4132 138.447 56.6488 138.444 64.9056L152.043 64.9739V34.4271C152.043 18.0175 135.375 10.7052 122.45 17.2971C119.397 18.8546 118.135 20.5562 116.055 22.4479L116.047 15.7848L102.449 15.7395V64.9739L116.047 64.8847Z" fill="#FF6600" stroke="#2B2A29" stroke-width="0.755906" stroke-miterlimit="22.9256"/>
<path fill-rule="evenodd" clip-rule="evenodd" d="M208.137 15.7691C208.726 17.6592 209.87 20.0921 210.678 22.0348L225.907 59.0359C226.224 59.7975 227.841 64.7544 228.711 64.9739H242.368C243.437 64.9739 243.226 64.8069 243.491 64.2876L245.709 58.8518C249.803 48.7786 254.507 37.9776 258.429 27.966C259.988 23.9858 262.071 19.7133 263.422 15.7626L247.935 15.7793L235.714 48.9892L223.636 15.7739L208.137 15.7691Z" fill="#FF6600" stroke="#2B2A29" stroke-width="0.755906" stroke-miterlimit="22.9256"/>
<path fill-rule="evenodd" clip-rule="evenodd" d="M0.713301 64.9755H44.9481C45.1571 63.8836 45.1571 53.6068 44.8597 52.5149L14.3407 52.5107C14.3407 49.5778 14.6038 2.51319 14.1926 1.00403H0.684954C0.397332 2.16397 0.397332 63.8152 0.713301 64.9755Z" fill="#FF6600" stroke="#2B2A29" stroke-width="0.755906" stroke-miterlimit="22.9256"/>
<path fill-rule="evenodd" clip-rule="evenodd" d="M59.8364 42.101C59.6316 41.9638 59.5079 41.9404 59.3359 41.7749L59.347 42.2999L59.8364 42.101Z" fill="#FF6600" stroke="#2B2A29" stroke-width="0.755906" stroke-miterlimit="22.9256"/>
</svg>
