<svg width="318" height="52" viewBox="0 0 318 52" fill="none" xmlns="http://www.w3.org/2000/svg">
<path fill-rule="evenodd" clip-rule="evenodd" d="M114.379 50.1254H124.191V18.3018L124.627 19.1919C124.795 19.5869 124.879 19.8223 125.044 20.2339L132.582 38.4195C132.884 39.1187 133.074 39.7053 133.386 40.4004L135.918 46.4876C136.208 47.2148 136.436 47.7531 136.732 48.4576C137.039 49.1881 137.268 49.8654 137.584 50.5231H146.07L147.737 46.4884C151.083 38.4981 154.714 30.462 158.061 22.4691C158.365 21.7427 158.634 21.1145 158.936 20.427L159.86 18.4345V50.1254H173.385V1.46179H156.943C156.566 1.46179 156.507 1.74185 156.368 2.07936L143.948 31.0313C143.903 30.4851 142.773 27.9506 142.507 27.3009L133.587 5.19326C133.314 4.51219 132.187 1.94406 132.147 1.46179H114.379V50.1254Z" fill="#FF6600" stroke="#2B2A29" stroke-width="0.755906" stroke-miterlimit="22.9256"/>
<path fill-rule="evenodd" clip-rule="evenodd" d="M228.281 50.1254H238.094V19.2301C238.114 19.2539 238.144 19.2615 238.152 19.3046C238.16 19.3476 238.198 19.3639 238.209 19.3801C238.348 19.5933 238.254 19.4346 238.36 19.6262C238.459 19.8046 238.527 19.9713 238.63 20.1519L249.763 40.3123C250.517 41.7731 254.89 49.3673 255.066 50.1254H270.58V1.46179H260.768V31.9596L260.502 31.5623C258.858 28.73 257.138 25.1919 255.52 22.4888C254.011 19.969 251.869 15.5949 250.287 12.871C249.939 12.272 249.586 11.6022 249.238 11.0028C249.051 10.6808 248.942 10.3924 248.744 10.0383L244.503 2.3454C244.309 1.97123 244.221 1.46179 243.795 1.46179H228.281V50.1254Z" fill="#FF6600" stroke="#2B2A29" stroke-width="0.755906" stroke-miterlimit="22.9256"/>
<path fill-rule="evenodd" clip-rule="evenodd" d="M70.6211 50.1254H106.556V40.9759C106.556 40.6706 106.464 40.5784 106.158 40.5784H84.6768V29.4401H103.241V21.2188H84.6768V10.4785H106.025V1.46179H70.6211V50.1254Z" fill="#FF6600" stroke="#2B2A29" stroke-width="0.755906" stroke-miterlimit="22.9256"/>
<path fill-rule="evenodd" clip-rule="evenodd" d="M184.523 50.1254H220.325V40.5784H198.579V29.4401H217.143V21.2188H198.579V10.4785H219.927V1.46179H184.523V50.1254Z" fill="#FF6600" stroke="#2B2A29" stroke-width="0.755906" stroke-miterlimit="22.9256"/>
<path fill-rule="evenodd" clip-rule="evenodd" d="M0.875 15.2517C0.875 20.297 3.25692 23.846 6.68986 26.5427C7.98889 27.5632 10.6017 28.985 12.2019 29.6495C12.9351 29.9537 13.5781 30.2013 14.2644 30.5044C15.5767 31.0838 16.9355 31.6447 18.2496 32.2211C20.794 33.3368 24.7432 34.3954 24.7432 37.396C24.7432 44.7015 9.0656 41.3222 5.13376 40.1653L1.93593 39.2521V49.1972L5.57151 49.9376C11.2325 51.07 20.1485 51.7106 25.6885 50.1425C30.103 48.8926 33.9059 47.0792 36.5467 43.0997C39.709 38.3345 39.4482 31.0339 35.2522 26.887C32.9769 24.6382 31.7489 23.6559 28.6327 22.1029C26.0516 20.8167 23.5613 19.6318 20.9878 18.3445C19.0784 17.3891 14.5331 15.8875 14.5331 13.3956C14.5331 11.7001 15.6174 10.9087 16.6768 10.2355C20.6003 7.74406 29.4709 9.9264 33.5456 11.3554C34.0895 11.5459 34.3541 11.7545 34.9532 11.8044L34.9282 2.54759C34.7582 2.09366 34.943 2.34582 33.5499 2.06953C32.4255 1.84616 31.363 1.65977 30.2937 1.48024C22.1073 0.104112 12.4994 -0.261684 5.79828 5.05876C3.09667 7.20402 0.875 10.4438 0.875 15.2517Z" fill="#FF6600" stroke="#2B2A29" stroke-width="0.755906" stroke-miterlimit="22.9256"/>
<path fill-rule="evenodd" clip-rule="evenodd" d="M279.598 14.7215C279.598 18.0891 280.445 21.4872 282.616 23.9019C283.607 25.0044 284.351 25.8027 285.566 26.6546L288.172 28.2908C288.568 28.5013 288.679 28.6101 289.099 28.8233L299.015 33.0953C300.781 33.7934 303.465 35.0282 303.465 37.2634C303.465 44.7571 287.614 41.338 283.858 40.1637L280.658 39.2521V49.1972L284.29 49.9414C287.666 50.7272 292.638 51.0537 296.305 51.0537C302.235 51.0537 307.212 49.7917 310.812 47.3944C315.215 44.4626 317.388 40.784 317.388 35.1419C317.388 30.6174 314.634 26.8032 311.078 24.3472C307.724 22.0311 301.883 19.4671 297.898 17.5044C296.056 16.5969 293.255 15.7121 293.255 13.1303C293.255 11.7613 294.513 10.6733 295.464 10.1679C298.853 8.36737 304.634 9.25023 308.08 10.1067L312.268 11.3555C312.812 11.546 313.077 11.7545 313.676 11.8044V2.39001C311.167 1.8057 308.421 1.37936 305.76 1.02333C299.052 0.126447 293.084 0.354346 287.066 3.36058C285.476 4.15504 283.023 6.07018 282.008 7.58502C281.607 8.18407 281.079 8.93126 280.808 9.56698C280.173 11.055 279.598 12.6307 279.598 14.7215Z" fill="#FF6600" stroke="#2B2A29" stroke-width="0.755906" stroke-miterlimit="22.9256"/>
<path fill-rule="evenodd" clip-rule="evenodd" d="M45.0312 50.1254H59.6173V1.46179H45.0312V50.1254Z" fill="#FF6600" stroke="#2B2A29" stroke-width="0.755906" stroke-miterlimit="22.9256"/>
</svg>
