<svg width="343" height="104" viewBox="0 0 343 104" fill="none" xmlns="http://www.w3.org/2000/svg">
<path fill-rule="evenodd" clip-rule="evenodd" d="M142.407 87.7628C142.407 84.8242 145.827 81.5234 147.755 81.5234C150.707 81.5234 159.027 81.1981 161.347 82.1936C166.327 84.3313 163.927 93.705 154.886 93.705C151.307 93.705 149.035 93.867 145.768 92.1273C144.098 91.238 142.407 89.6892 142.407 87.7628ZM147.755 50.0296C147.755 41.6197 160.531 41.0139 160.531 49.7325C160.531 52.4999 158.968 54.9103 156.713 55.7183C154.156 56.6353 151.57 56.3888 149.597 54.4268C148.646 53.4812 147.755 51.7886 147.755 50.0296ZM140.327 60.1312C137.836 60.7964 133.289 65.0531 132.583 69.0394C131.81 73.404 134.246 78.5113 138.247 79.4437C135.965 82.8525 131.711 82.2522 131.711 90.7342C131.711 100.23 144.316 102.915 152.509 102.915C157.133 102.915 162.822 101.7 166.769 99.9435C167.79 99.4892 169.58 98.4482 170.512 97.7437C181.477 89.4477 179.248 71.5553 164.677 70.5435C161.574 70.3285 149.197 70.3785 147.771 69.9208C142.768 68.3156 145.191 64.6883 147.153 63.6852C148.945 62.7698 159.594 65.7909 167.711 60.1805C169.368 59.035 170.433 57.9222 171.532 56.2758C173.639 53.1192 174.095 47.691 172.596 43.9058C171.702 41.6479 170.973 40.902 169.375 39.4023C162.625 33.0678 130.47 32.949 135.199 53.3747C136.343 58.3153 139.25 58.5219 140.327 60.1312Z" fill="#9E9E9E" stroke="#2B2A29" stroke-width="0.755906" stroke-miterlimit="22.9256"/>
<path fill-rule="evenodd" clip-rule="evenodd" d="M43.1708 92.8139C38.8814 92.8139 37.8879 92.2539 36.3376 92.2195C36.2238 93.5835 35.7283 95.1382 35.4675 96.4006C35.1943 97.7242 34.6541 99.6423 34.5547 100.836C45.2863 103.336 54.8388 102.6 61.1744 92.0987C62.8574 89.3094 67.579 77.5611 69.0625 73.8409C70.8276 69.414 84.0556 38.0672 84.1728 36.6589H71.6943C71.6013 37.7747 67.109 48.901 66.5987 50.2821L62.1646 62.4864C61.7999 63.5809 62.1158 63.3925 61.2948 63.9938C61.2363 61.3511 58.0139 53.0128 56.9246 50.2401L52.0846 36.6589H37.8228C37.8591 38.2853 42.7249 49.8799 43.4332 51.8467C44.3418 54.3688 45.3423 56.7984 46.356 59.3231L53.5884 77.9618C54.375 79.8512 53.9161 79.7314 53.1039 81.6507C51.368 85.7503 48.4728 92.8139 43.1708 92.8139Z" fill="#9E9E9E" stroke="#2B2A29" stroke-width="0.755906" stroke-miterlimit="22.9256"/>
<path fill-rule="evenodd" clip-rule="evenodd" d="M99.3269 40.2247C99.3269 35.6231 101.415 36.659 86.2539 36.659V79.4438H99.624V50.0296C99.624 47.6463 111.81 42.0321 113.477 49.8436C113.791 51.3154 113.591 71.0981 113.589 74.9872C113.584 80.6232 111.291 79.4438 126.365 79.4438C127.049 79.4438 127.256 79.2368 127.256 78.5524V52.7036C127.256 43.2038 124.775 35.7678 113.589 35.7678C109.954 35.7678 106.946 36.5724 104.072 37.8386L99.3269 40.2247Z" fill="#9E9E9E" stroke="#2B2A29" stroke-width="0.755906" stroke-miterlimit="22.9256"/>
<path fill-rule="evenodd" clip-rule="evenodd" d="M238.67 40.5219V36.6591H225.895V79.4439C240.885 79.4439 239.324 80.4343 239.27 76.4779L239.265 49.138C240.937 48.6916 242.549 45.8699 247.287 45.8699C250.675 45.8699 253.229 47.5843 253.229 50.9209V79.4439H266.599V47.9498C266.599 35.3825 251.5 31.9306 238.67 40.5219Z" fill="#9E9E9E" stroke="#2B2A29" stroke-width="0.755906" stroke-miterlimit="22.9256"/>
<path fill-rule="evenodd" clip-rule="evenodd" d="M198.857 44.9788C203.949 44.9788 206.285 46.7219 206.285 52.4067H192.024C192.024 48.7595 195.251 44.9788 198.857 44.9788ZM198.857 80.3351C202.401 80.3351 206.507 79.7925 209.363 78.9561C211.183 78.4228 212.161 78.1027 213.799 77.4496C215.185 76.8963 217.009 75.8517 218.17 75.5814C218.037 73.9808 215.334 69.4144 214.902 67.5591C211.713 68.3021 211.195 70.5304 202.423 70.5304C195.941 70.5304 191.727 67.5127 191.727 61.0229H219.953C219.953 53.7745 220.291 46.3345 214.981 41.0371C213.181 39.2415 211.779 38.2404 209.264 37.2464C198.535 33.0061 183.909 37.7115 179.497 48.7934C177.131 54.7386 176.917 60.8394 179.057 67.1557C181.948 75.6842 189.833 80.3351 198.857 80.3351Z" fill="#9E9E9E" stroke="#2B2A29" stroke-width="0.755906" stroke-miterlimit="22.9256"/>
<path fill-rule="evenodd" clip-rule="evenodd" d="M317.706 66.3708C317.706 60.4369 324.686 60.1313 329.294 60.1313C329.294 66.7186 330.207 68.1885 327.024 70.0431C323.228 72.256 317.706 71.1247 317.706 66.3708ZM306.416 40.8188L309.684 48.8409C312.036 48.2932 316.117 44.9786 322.163 44.9786C328.383 44.9786 329.294 47.422 329.294 51.8119C326.182 52.5368 304.336 50.93 304.336 68.1534C304.336 80.0479 316.475 82.1377 324.545 79.1515C326.865 78.2928 328.024 77.4234 329.888 76.1754V79.4438H342.367V48.2468C342.367 39.2609 333.425 35.7678 324.837 35.7678C315.609 35.7678 308.924 40.2345 306.416 40.8188Z" fill="#9E9E9E" stroke="#2B2A29" stroke-width="0.755906" stroke-miterlimit="22.9256"/>
<path fill-rule="evenodd" clip-rule="evenodd" d="M2.46598 47.95V50.921C2.46598 60.354 12.5997 61.6912 18.331 62.9845C21.8648 63.782 24.1551 64.0787 24.1551 67.2622C24.1551 73.2629 10.9734 70.1796 7.55062 69.0114C6.69758 68.72 5.83016 68.2356 4.84294 68.1536L1.27734 76.7701L8.23286 79.0251C15.6241 80.6575 25.5854 80.8986 31.9259 76.5185C37.0434 72.9827 37.5252 69.3062 37.5252 63.9941C37.5252 60.9357 35.9424 58.0776 34.2302 56.2959L32.4812 54.7767C29.6734 52.7596 25.0611 52.003 21.7038 51.2925C19.136 50.749 15.8361 50.2786 15.8361 47.3559C15.8361 41.9625 28.5183 44.2486 31.5831 45.8701L34.8512 36.9569C31.9478 36.2803 28.2356 35.1964 24.7611 35.1628C20.7929 35.1238 17.4658 34.7899 14.0102 35.725C8.14552 37.312 2.46598 41.6457 2.46598 47.95Z" fill="#9E9E9E" stroke="#2B2A29" stroke-width="0.755906" stroke-miterlimit="22.9256"/>
<path fill-rule="evenodd" clip-rule="evenodd" d="M277.298 27.4489V36.6591C273.194 36.6591 270.465 36.0417 270.465 37.5509V45.2759H277.298V68.4509C277.298 76.9665 284.429 80.3351 292.154 80.3351C293.617 80.3351 300.806 79.7125 301.613 79.3746C302.564 78.9755 302.369 79.2711 301.83 75.4126C301.632 73.9881 301.364 71.8703 301.364 70.5305C298.339 70.5305 290.669 72.7767 290.669 65.1825V45.2759H302.256V36.6591H290.669V23.8833C288.617 23.8833 280.057 26.806 277.298 27.4489Z" fill="#9E9E9E" stroke="#2B2A29" stroke-width="0.755906" stroke-miterlimit="22.9256"/>
<path fill-rule="evenodd" clip-rule="evenodd" d="M163.5 25.666C163.5 30.9003 164.651 33.5007 164.688 35.1739C165.838 35.0783 165.325 35.0491 166.315 34.7206C167.033 34.4825 167.347 34.4271 167.99 34.3152C174.612 33.1613 183.947 36.2038 190.186 26.5033C193.89 20.7429 193.662 9.684 197.798 2.32375C198.244 1.52892 198.313 1.76663 198.56 0.70874C196.08 0.70874 188.687 2.363 186.02 3.02518C179.499 4.6447 170.572 8.27767 166.821 13.8343C164.736 16.9226 163.5 20.5875 163.5 25.666Z" fill="#9E9E9E" stroke="#2B2A29" stroke-width="0.755906" stroke-miterlimit="22.9256"/>
</svg>
