<svg width="312" height="33" viewBox="0 0 312 33" fill="none" xmlns="http://www.w3.org/2000/svg">
<g clip-path="url(#clip0_7_232)">
<path fill-rule="evenodd" clip-rule="evenodd" d="M182.658 30.2185C180.391 32.1347 177.735 33.0845 174.713 33.0845C167.657 33.0845 162.262 27.2834 162.262 20.333C162.262 13.4107 167.667 7.51889 174.713 7.51889C177.76 7.51889 180.41 8.51905 182.658 10.4867V7.94173H187.962V32.7095H182.658V30.2185ZM97.7631 20.3334C97.7631 23.8673 96.4922 26.8888 93.977 29.3765C91.4701 31.8555 88.43 33.0845 84.9054 33.0845C81.3778 33.0845 78.3363 31.858 75.8265 29.3765C73.3116 26.8903 72.0629 23.863 72.0629 20.3334C72.0629 16.806 73.3276 13.7922 75.825 11.2987C78.3327 8.79502 81.3568 7.51926 84.905 7.51926C88.4496 7.51926 91.4705 8.79973 93.9773 11.2987C96.4766 13.7896 97.7631 16.8046 97.7631 20.3334ZM92.4595 20.3015C92.4595 18.2261 91.6956 16.4706 90.229 15.0023C88.7576 13.5293 86.9913 12.7684 84.9057 12.7684C82.8162 12.7684 81.0495 13.5267 79.5749 15.0023C78.1093 16.4692 77.368 18.2294 77.368 20.3015C77.368 22.3819 78.1031 24.1523 79.5749 25.6254C81.0477 27.0995 82.8205 27.8353 84.9057 27.8353C86.9873 27.8353 88.7591 27.097 90.229 25.6254C91.7014 24.1513 92.4595 22.3856 92.4595 20.3015ZM160.62 27.0197C159.418 28.8659 157.877 30.3806 155.948 31.4588C154.003 32.5449 151.901 33.0845 149.675 33.0845C146.151 33.0845 143.108 31.8577 140.603 29.3765C138.092 26.8903 136.848 23.8593 136.848 20.3334C136.848 16.8093 138.108 13.7929 140.602 11.2987C143.106 8.79574 146.131 7.51926 149.675 7.51926C151.91 7.51926 154.002 8.09766 155.948 9.19283C157.863 10.2702 159.414 11.7472 160.62 13.5833L160.785 13.8353L156.333 16.7553L156.166 16.5036C154.618 14.1635 152.523 12.7684 149.675 12.7684C147.592 12.7684 145.827 13.5293 144.359 15.0023C142.896 16.4706 142.152 18.2294 142.152 20.3015C142.152 22.3823 142.89 24.1513 144.359 25.6254C145.826 27.097 147.596 27.8353 149.675 27.8353C152.523 27.8353 154.618 26.4402 156.166 24.1001L156.333 23.8488L160.784 26.7677L160.62 27.0197ZM127.668 32.7095V7.94173H132.973V32.7095H127.668ZM106.356 9.84013C108.179 8.31923 110.299 7.51926 112.726 7.51926C118.649 7.51926 122.804 12.7202 122.804 18.394V32.7099H117.5V18.3552C117.5 15.3123 114.938 12.7684 111.884 12.7684C108.841 12.7684 106.356 15.3236 106.356 18.3552V32.7099H101.051V7.94173H106.356V9.84013ZM70.6195 27.0197C69.4176 28.8659 67.8769 30.3806 65.9467 31.4588C64.0025 32.5449 61.9009 33.0845 59.6744 33.0845C56.1505 33.0845 53.1079 31.8577 50.6028 29.3765C48.0926 26.8903 46.8475 23.8593 46.8475 20.3334C46.8475 16.8093 48.1079 13.7929 50.6021 11.2987C53.105 8.79574 56.1298 7.51926 59.6744 7.51926C61.9096 7.51926 64.0017 8.09766 65.9475 9.19283C67.8627 10.2702 69.4136 11.7472 70.6188 13.5833L70.7844 13.8353L66.3317 16.7553L66.1658 16.5036C64.6174 14.1635 62.5235 12.7684 59.6744 12.7684C57.5914 12.7684 55.8265 13.5293 54.3592 15.0023C52.8958 16.4706 52.1523 18.2294 52.1523 20.3015C52.1523 22.3823 52.8903 24.1513 54.3592 25.6254C55.8251 27.097 57.5957 27.8353 59.6744 27.8353C62.5231 27.8353 64.6174 26.4402 66.1658 24.1001L66.3317 23.8488L70.7829 26.7677L70.6195 27.0197ZM38.2543 9.66643C40.1267 8.06394 42.0945 7.51889 44.5201 7.51889V12.8225C41.1792 12.8225 38.2543 14.8521 38.2543 18.3937V32.7095H32.9496V7.94173H38.2543V9.66643ZM22.2903 26.8446H11.5705L9.64073 21.5954H20.3759C19.2419 18.4767 18.0466 15.176 15.0177 6.87884C10.0014 20.5648 9.53213 21.9428 5.56366 32.7099H0.010498L11.8454 0.105865H18.214L30.1132 32.7099H24.4417C23.5463 30.2726 22.8599 28.4024 22.2903 26.8446ZM127.668 0.110215V5.35431H132.973V0.110215H127.668ZM192.306 5.84279H193.026V4.53511H193.796L194.736 5.84279H195.596L194.576 4.41545C195.096 4.26604 195.456 3.88636 195.456 3.27713C195.456 2.92791 195.346 2.65847 195.146 2.46881C194.886 2.2088 194.496 2.06012 193.996 2.06012H192.307L192.306 5.84279ZM196.208 1.61154C195.582 0.987077 194.716 0.600143 193.76 0.600143C192.804 0.600143 191.938 0.987077 191.313 1.61154L191.312 1.61299C190.686 2.23672 190.299 3.10198 190.299 4.05608C190.299 5.01017 190.686 5.87506 191.312 6.49952L191.313 6.50025C191.938 7.12471 192.804 7.51236 193.76 7.51236C194.716 7.51236 195.582 7.12471 196.208 6.50025L196.208 6.49952C196.834 5.87506 197.222 5.01054 197.222 4.05608C197.222 3.10161 196.834 2.23636 196.208 1.61299L196.208 1.61154ZM193.76 0.10695C194.851 0.10695 195.84 0.549006 196.556 1.26376L196.557 1.26449C197.273 1.97962 197.716 2.96707 197.716 4.05643C197.716 5.14579 197.273 6.13362 196.557 6.84766L196.556 6.84911C195.84 7.5635 194.851 8.00592 193.76 8.00592C192.668 8.00592 191.68 7.56314 190.964 6.84911L190.963 6.84766C190.247 6.13326 189.805 5.14579 189.805 4.05643C189.805 2.96707 190.247 1.97962 190.963 1.26449L190.964 1.26376C191.68 0.548643 192.668 0.10695 193.76 0.10695ZM193.026 3.9063V2.70815H193.966C194.436 2.70815 194.716 2.91776 194.716 3.2978C194.716 3.67676 194.436 3.9063 193.966 3.9063H193.026ZM175.104 12.7681C170.94 12.7681 167.566 16.1468 167.566 20.3015C167.566 24.4874 170.91 27.8353 175.104 27.8353C179.346 27.8353 182.576 24.486 182.556 20.2736C182.535 16.1152 179.298 12.7681 175.104 12.7681Z" fill="#333333"/>
<path fill-rule="evenodd" clip-rule="evenodd" d="M217.605 0.104797V16.0006H233.526V16.2066V16.4075V16.8144H217.605V32.7103H217.198H216.791V16.8144H200.869V16.4075V16.0006H216.791V0.104797H217.198H217.4H217.605Z" fill="#FF6600"/>
<path d="M306.94 26.5371C306.94 26.9512 307.121 27.2772 307.479 27.5147C307.839 27.749 308.271 27.935 308.781 28.0692C309.291 28.2041 309.804 28.3383 310.319 28.4725C310.835 28.6103 311.267 28.8558 311.62 29.2133C311.971 29.5705 312.146 30.0481 312.146 30.6454C312.146 31.3543 311.863 31.9378 311.296 32.3958C310.728 32.8535 309.987 33.0816 309.07 33.0816C308.245 33.0816 307.55 32.9075 306.983 32.5583C306.416 32.2098 306.024 31.7492 305.806 31.1777L306.545 30.7484C306.705 31.2176 307.006 31.5861 307.447 31.8551C307.888 32.1235 308.429 32.258 309.071 32.258C309.713 32.258 310.242 32.1184 310.66 31.8381C311.078 31.5578 311.287 31.16 311.287 30.6454C311.287 30.2229 311.11 29.8846 310.755 29.6358C310.4 29.3845 309.967 29.1901 309.458 29.0556C308.947 28.9239 308.436 28.7865 307.92 28.6523C307.405 28.5182 306.969 28.2781 306.614 27.9347C306.259 27.592 306.081 27.1343 306.081 26.5621C306.081 25.8763 306.354 25.2987 306.897 24.8298C307.442 24.3609 308.144 24.1259 309.003 24.1259C309.69 24.1259 310.288 24.2807 310.798 24.5893C311.308 24.8983 311.683 25.3157 311.924 25.8415L311.202 26.2535C311.03 25.8303 310.743 25.5068 310.342 25.2838C309.941 25.0608 309.495 24.9491 309.003 24.9491C308.418 24.9491 307.929 25.0927 307.533 25.3784C307.138 25.6671 306.94 26.05 306.94 26.5371ZM300.6 24.1263C301.619 24.1263 302.43 24.4378 303.031 25.0615C303.632 25.6845 303.933 26.5168 303.933 27.5579V32.893H303.057V27.5579C303.057 26.7568 302.836 26.1226 302.395 25.6537C301.954 25.1848 301.333 24.9498 300.531 24.9498C299.648 24.9498 298.927 25.2414 298.366 25.8248C297.804 26.4083 297.524 27.2547 297.524 28.364V32.893H296.665V24.3155H297.524V25.9452C298.142 24.7326 299.168 24.1263 300.6 24.1263ZM287.515 31.1941C288.219 31.903 289.081 32.2577 290.1 32.2577C291.12 32.2577 291.979 31.903 292.678 31.1941C293.376 30.4851 293.726 29.622 293.726 28.6037C293.726 27.5858 293.376 26.722 292.678 26.0131C291.979 25.3041 291.12 24.9494 290.1 24.9494C289.081 24.9494 288.219 25.3037 287.515 26.0131C286.81 26.722 286.457 27.5862 286.457 28.6037C286.457 29.622 286.81 30.4851 287.515 31.1941ZM290.101 33.0812C288.841 33.0812 287.773 32.65 286.896 31.7862C286.02 30.9232 285.582 29.8621 285.582 28.6037C285.582 27.3457 286.02 26.2847 286.896 25.4216C287.773 24.5578 288.841 24.1259 290.101 24.1259C291.349 24.1259 292.412 24.5578 293.288 25.4216C294.165 26.2847 294.603 27.3457 294.603 28.6037C294.603 29.8621 294.165 30.9232 293.288 31.7862C292.412 32.65 291.349 33.0812 290.101 33.0812ZM282.661 32.8926V24.3152H283.519V32.8926H282.661ZM283.571 22.0418C283.434 22.1734 283.274 22.2391 283.09 22.2391C282.907 22.2391 282.746 22.1734 282.609 22.0418C282.471 21.9102 282.403 21.7474 282.403 21.553C282.403 21.3698 282.472 21.2125 282.609 21.0808C282.747 20.9499 282.907 20.8835 283.09 20.8835C283.274 20.8835 283.434 20.9499 283.571 21.0808C283.709 21.2125 283.777 21.3698 283.777 21.553C283.777 21.7474 283.709 21.9102 283.571 22.0418ZM280.598 25.1558H278.038V30.7313C278.038 31.2234 278.13 31.5777 278.313 31.7949C278.496 32.0125 278.777 32.1347 279.154 32.1638C279.533 32.1924 280.014 32.1775 280.598 32.1206V32.8926C279.441 33.0638 278.579 32.984 278.013 32.6526C277.446 32.3211 277.162 31.6804 277.162 30.7313V25.1558H275.272V24.3152H277.162V22.1709L278.039 21.9127V24.3152H280.599L280.598 25.1558ZM272.694 24.3152H273.553V32.8926H272.694V31.263C272.075 32.4753 271.051 33.0812 269.618 33.0812C268.599 33.0812 267.788 32.7697 267.187 32.1467C266.586 31.523 266.286 30.6907 266.286 29.6503V24.3152H267.162V29.6503C267.162 30.4507 267.382 31.0856 267.823 31.5545C268.264 32.0234 268.886 32.2577 269.687 32.2577C270.57 32.2577 271.291 31.9661 271.852 31.3834C272.414 30.7999 272.694 29.9531 272.694 28.8438V24.3152ZM263.003 32.8926V20.369H263.862V32.8926H263.003ZM253.853 31.1941C254.558 31.903 255.42 32.2577 256.439 32.2577C257.459 32.2577 258.318 31.903 259.016 31.1941C259.715 30.4851 260.065 29.622 260.065 28.6037C260.065 27.5858 259.715 26.722 259.016 26.0131C258.318 25.3041 257.459 24.9494 256.439 24.9494C255.42 24.9494 254.557 25.3037 253.853 26.0131C253.148 26.722 252.796 27.5862 252.796 28.6037C252.796 29.622 253.148 30.4851 253.853 31.1941ZM256.439 33.0812C255.179 33.0812 254.111 32.65 253.235 31.7862C252.358 30.9232 251.919 29.8621 251.919 28.6037C251.919 27.3457 252.358 26.2847 253.235 25.4216C254.11 24.5578 255.179 24.1259 256.439 24.1259C257.688 24.1259 258.75 24.5578 259.626 25.4216C260.503 26.2847 260.941 27.3457 260.941 28.6037C260.941 29.8621 260.503 30.9232 259.626 31.7862C258.75 32.65 257.688 33.0812 256.439 33.0812ZM246.25 33.0812C245.138 33.0812 244.196 32.8274 243.423 32.3179C242.65 31.8091 242.126 31.1197 241.851 30.2508L242.641 29.787C242.859 30.5312 243.274 31.1197 243.887 31.5545C244.5 31.989 245.287 32.2058 246.25 32.2058C247.223 32.2058 247.97 31.9835 248.492 31.5371C249.013 31.0911 249.273 30.5141 249.273 29.8041C249.273 29.1408 249.022 28.632 248.517 28.2777C248.013 27.9231 247.229 27.5713 246.163 27.2286C245.777 27.0886 245.493 26.9853 245.315 26.9196C245.138 26.8569 244.883 26.7623 244.551 26.6419C244.216 26.5193 243.97 26.4076 243.809 26.3046C243.649 26.2024 243.457 26.0645 243.233 25.8934C243.01 25.7215 242.847 25.5474 242.743 25.3701C242.641 25.1928 242.549 24.981 242.469 24.7351C242.388 24.4889 242.348 24.218 242.348 23.9203C242.348 22.9477 242.695 22.1673 243.388 21.5787C244.081 20.9891 244.949 20.695 245.991 20.695C246.93 20.695 247.733 20.93 248.397 21.3981C249.061 21.867 249.548 22.4737 249.857 23.2171L249.084 23.6458C248.511 22.2619 247.48 21.57 245.991 21.57C245.166 21.57 244.508 21.7869 244.015 22.2217C243.522 22.6561 243.277 23.211 243.277 23.8858C243.277 24.5378 243.505 25.0241 243.964 25.3411C244.422 25.662 245.172 25.9931 246.215 26.3365C246.871 26.5828 247.389 26.7739 247.764 26.9142C248.142 27.0571 248.543 27.2602 248.972 27.5285C249.402 27.798 249.714 28.1182 249.909 28.4924C250.104 28.8641 250.201 29.296 250.201 29.7878C250.201 30.7832 249.84 31.581 249.119 32.1815C248.398 32.781 247.441 33.0812 246.25 33.0812ZM297.696 12.3061V-0.217957H298.556V12.3061H297.696ZM287.961 10.6071C288.666 11.3161 289.528 11.6707 290.548 11.6707C291.567 11.6707 292.427 11.3161 293.125 10.6071C293.824 9.89818 294.174 9.03437 294.174 8.01717C294.174 6.99888 293.824 6.13509 293.125 5.42613C292.427 4.71717 291.568 4.36252 290.548 4.36252C289.528 4.36252 288.666 4.71717 287.961 5.42613C287.257 6.13509 286.905 6.99888 286.905 8.01717C286.905 9.03437 287.257 9.89818 287.961 10.6071ZM294.173 3.72826H295.049V12.3057H294.173V10.3671C293.807 11.0303 293.303 11.5511 292.661 11.9282C292.02 12.3061 291.292 12.4947 290.479 12.4947C289.253 12.4947 288.205 12.0628 287.334 11.1993C286.464 10.3355 286.028 9.27516 286.028 8.01717C286.028 6.75882 286.464 5.69811 287.334 4.83431C288.205 3.97087 289.253 3.53896 290.479 3.53896C291.292 3.53896 292.02 3.72826 292.661 4.10541C293.303 4.48291 293.807 5.00294 294.173 5.6662V3.72826ZM283.107 12.3061V3.72862H283.966V12.3061H283.107ZM284.018 1.45489C283.881 1.58653 283.72 1.65217 283.537 1.65217C283.354 1.65217 283.193 1.58653 283.056 1.45489C282.919 1.32325 282.85 1.16078 282.85 0.966049C282.85 0.782554 282.919 0.625543 283.056 0.493905C283.194 0.361905 283.354 0.296628 283.537 0.296628C283.72 0.296628 283.881 0.361905 284.018 0.493905C284.156 0.625543 284.225 0.782554 284.225 0.966049C284.224 1.16042 284.155 1.32325 284.018 1.45489ZM277.402 12.4947C276.108 12.4947 275.031 12.066 274.172 11.208C273.313 10.3504 272.884 9.28676 272.884 8.01717C272.884 6.74721 273.313 5.6836 274.172 4.8256C275.031 3.96833 276.108 3.53896 277.402 3.53896C278.238 3.53896 278.994 3.73625 279.671 4.13116C280.347 4.52534 280.839 5.06059 281.148 5.73509L280.444 6.14742C280.192 5.59839 279.794 5.16322 279.249 4.84301C278.706 4.5228 278.09 4.36287 277.402 4.36287C276.372 4.36287 275.506 4.71463 274.808 5.41815C274.109 6.12203 273.76 6.98765 273.76 8.01754C273.76 9.0467 274.109 9.91305 274.808 10.6162C275.507 11.3194 276.372 11.6711 277.402 11.6711C278.09 11.6711 278.706 11.5112 279.249 11.191C279.794 10.8708 280.209 10.4363 280.495 9.8873L281.217 10.3159C280.873 10.9792 280.361 11.5087 279.679 11.9028C278.998 12.2974 278.238 12.4947 277.402 12.4947ZM267.213 4.36252C266.24 4.36252 265.426 4.66568 264.773 5.27201C264.12 5.87798 263.748 6.66164 263.656 7.62226H270.563C270.472 6.60434 270.108 5.80654 269.472 5.22922C268.837 4.65154 268.083 4.36252 267.213 4.36252ZM267.213 3.53896C268.473 3.53896 269.496 3.98573 270.28 4.87709C271.065 5.76954 271.457 6.827 271.457 8.05127C271.457 8.09696 271.455 8.16513 271.449 8.25724C271.443 8.34826 271.44 8.41716 271.44 8.46285H263.656C263.759 9.42348 264.146 10.1984 264.816 10.787C265.486 11.3766 266.314 11.6707 267.299 11.6707C267.987 11.6707 268.588 11.5279 269.104 11.2425C269.619 10.956 270.009 10.5788 270.271 10.11L271.028 10.5556C270.673 11.1504 270.169 11.6225 269.516 11.971C268.863 12.3195 268.118 12.4943 267.282 12.4943C265.964 12.4943 264.882 12.0744 264.034 11.2334C263.186 10.3928 262.763 9.3205 262.763 8.01682C262.763 6.73562 263.178 5.66909 264.009 4.81762C264.839 3.96506 265.907 3.53896 267.213 3.53896ZM254.179 10.6071C254.884 11.3161 255.746 11.6707 256.766 11.6707C257.785 11.6707 258.647 11.3161 259.351 10.6071C260.056 9.89818 260.408 9.03437 260.408 8.01717C260.408 6.99888 260.056 6.13509 259.351 5.42613C258.647 4.71717 257.785 4.36252 256.766 4.36252C255.746 4.36252 254.884 4.71717 254.179 5.42613C253.475 6.13509 253.122 6.99888 253.122 8.01717C253.123 9.03437 253.475 9.89818 254.179 10.6071ZM256.817 3.53896C258.054 3.53896 259.105 3.97087 259.97 4.83431C260.835 5.69811 261.267 6.75882 261.267 8.01717C261.267 9.27516 260.835 10.3355 259.97 11.1993C259.105 12.0628 258.054 12.4947 256.817 12.4947C256.004 12.4947 255.273 12.3003 254.626 11.9112C253.979 11.5228 253.478 10.9904 253.122 10.3159V15.7374H252.263V3.72862H253.122V5.71842C253.478 5.04355 253.979 4.51192 254.626 4.12281C255.273 3.7337 256.004 3.53896 256.817 3.53896ZM246.25 12.4947C245.138 12.4947 244.196 12.2397 243.423 11.7313C242.65 11.2222 242.126 10.5335 241.851 9.66428L242.641 9.20082C242.859 9.94423 243.274 10.5339 243.887 10.9683C244.5 11.4031 245.287 11.62 246.25 11.62C247.223 11.62 247.97 11.397 248.492 10.9513C249.013 10.5049 249.273 9.92755 249.273 9.21859C249.273 8.55533 249.022 8.04655 248.517 7.69189C248.013 7.33723 247.229 6.98547 246.163 6.64242C245.777 6.5028 245.493 6.39945 245.315 6.33345C245.138 6.27144 244.883 6.17679 244.551 6.0564C244.216 5.93346 243.97 5.8225 243.809 5.71915C243.649 5.61579 243.457 5.47908 243.233 5.30755C243.01 5.13566 242.847 4.96159 242.743 4.7839C242.641 4.60766 242.549 4.39552 242.469 4.14965C242.388 3.90378 242.348 3.63253 242.348 3.3348C242.348 2.36221 242.695 1.58181 243.388 0.993251C244.081 0.403965 244.949 0.109499 245.991 0.109499C246.93 0.109499 247.733 0.34341 248.397 0.812663C249.061 1.28155 249.548 1.88752 249.857 2.63165L249.084 3.06029C248.511 1.67683 247.48 0.984187 245.991 0.984187C245.166 0.984187 244.508 1.20177 244.015 1.63621C243.522 2.07101 243.277 2.62584 243.277 3.30035C243.277 3.95201 243.505 4.43903 243.964 4.75561C244.422 5.07546 245.172 5.40763 246.215 5.75105C246.871 5.99619 247.389 6.18803 247.764 6.32837C248.142 6.47125 248.543 6.67433 248.972 6.94305C249.402 7.21212 249.714 7.53233 249.909 7.90693C250.104 8.27864 250.201 8.71054 250.201 9.20192C250.201 10.1974 249.84 10.9952 249.119 11.5957C248.398 12.1944 247.441 12.4947 246.25 12.4947Z" fill="#FF6600"/>
</g>
<defs>
<clipPath id="clip0_7_232">
<rect width="312" height="33" fill="white"/>
</clipPath>
</defs>
</svg>
