<svg width="210" height="69" viewBox="0 0 210 69" fill="none" xmlns="http://www.w3.org/2000/svg">
<path d="M12.7619 38.9508C10.1401 38.9508 7.66608 38.4858 5.33507 37.551C3.00405 36.6185 1.22648 35.4407 0 34.0151L0.919269 32.7952C2.0754 34.0852 3.71696 35.1789 5.84395 36.0763C7.97094 36.9761 10.2597 37.4248 12.7104 37.4248C15.1938 37.4248 17.2364 37.0859 18.8357 36.4082C20.4351 35.7304 21.617 34.8237 22.3838 33.6856C23.1483 32.5498 23.5329 31.2878 23.5329 29.895C23.5329 28.2661 23.1249 26.962 22.3088 25.9781C21.4927 24.9943 20.4116 24.216 19.0679 23.6388C17.7242 23.0616 16.2608 22.5871 14.6779 22.2156C13.095 21.8416 11.4956 21.4444 9.87984 21.019C8.26408 20.596 6.78199 20.0515 5.43825 19.3901C4.09452 18.7288 3.02281 17.8127 2.22314 16.6441C1.42346 15.4733 1.02245 13.9566 1.02245 12.0917C1.02245 10.4978 1.44691 9.00682 2.29818 7.61631C3.14945 6.22579 4.47677 5.09935 6.28014 4.23466C8.08351 3.36997 10.3981 2.93762 13.2216 2.93762C15.161 2.93762 17.0746 3.23442 18.9647 3.82802C20.8525 4.42162 22.4612 5.20919 23.7885 6.19307L23.024 7.56722C21.5959 6.51557 20.013 5.73502 18.2776 5.22789C16.5422 4.71842 14.8749 4.46368 13.2755 4.46368C10.8929 4.46368 8.91132 4.8119 7.32839 5.50599C5.74546 6.20242 4.57995 7.12553 3.83187 8.27767C3.08379 9.42982 2.70857 10.7035 2.70857 12.0917C2.70857 13.7533 3.11662 15.076 3.9327 16.0599C4.74879 17.0438 5.82988 17.8243 7.17361 18.3992C8.51735 18.9765 9.99006 19.4509 11.5894 19.8225C13.1888 20.1964 14.7881 20.5937 16.3875 21.019C17.9868 21.4444 19.4572 21.9935 20.8032 22.6713C22.147 23.349 23.2187 24.2581 24.0184 25.3939C24.818 26.5297 25.219 28.0137 25.219 29.8459C25.219 31.4397 24.7852 32.9331 23.9175 34.3212C23.0498 35.7118 21.6873 36.8312 19.8347 37.6795C17.9774 38.5255 15.6206 38.9508 12.7619 38.9508Z" fill="#EB5A2E"/>
<path d="M44.7656 38.7452V3.13861H57.1688C60.1283 3.13861 62.6727 3.61302 64.7997 4.56184C66.9267 5.51067 68.5518 6.85912 69.6751 8.60486C70.7984 10.3529 71.3589 12.4632 71.3589 14.9381C71.3589 17.413 70.7984 19.535 69.6751 21.2971C68.5518 23.0616 66.9267 24.417 64.7997 25.3658C62.6727 26.3147 60.1283 26.7891 57.1688 26.7891H45.7341L46.501 25.9758V38.7428H44.7656V38.7452ZM46.5033 25.9781L45.7365 25.2139H57.272C61.2867 25.2139 64.3588 24.3165 66.4858 22.517C68.6128 20.7199 69.6751 18.1936 69.6751 14.9381C69.6751 11.6827 68.6105 9.1634 66.4858 7.38494C64.3588 5.60414 61.2867 4.71375 57.272 4.71375H45.7365L46.5033 3.90048V25.9781Z" fill="#EB5A2E"/>
<path d="M134.758 38.7452V3.13861H147.161C150.12 3.13861 152.665 3.61302 154.792 4.56184C156.919 5.51067 158.544 6.85912 159.667 8.60486C160.791 10.3529 161.351 12.4632 161.351 14.9381C161.351 17.413 160.791 19.535 159.667 21.2971C158.544 23.0616 156.919 24.417 154.792 25.3658C152.665 26.3147 150.12 26.7891 147.161 26.7891H135.726L136.491 25.9758V38.7428H134.758V38.7452ZM136.493 25.9781L135.729 25.2139H147.264C151.279 25.2139 154.351 24.3165 156.478 22.517C158.605 20.7199 159.667 18.1936 159.667 14.9381C159.667 11.6827 158.603 9.1634 156.478 7.38494C154.351 5.60414 151.279 4.71375 147.264 4.71375H135.729L136.493 3.90048V25.9781ZM159.871 38.7452L150.58 25.8239H152.571L161.912 38.7452H159.871Z" fill="#EB5A2E"/>
<path d="M181.613 38.7452V3.13863H183.349V38.7476H181.613V38.7452ZM183.095 29.5888L183.044 27.4014L206.729 3.13629H208.873L192.895 19.5678L191.875 20.5844L183.095 29.5888ZM207.852 38.7452L191.263 19.923L192.438 18.7521L209.998 38.7429H207.852V38.7452Z" fill="#EB5A2E"/>
<path d="M50.8578 69C50.0371 69 49.2655 68.9159 48.5456 68.7476C47.8256 68.5794 47.2581 68.3924 46.8407 68.1868V65.4104H47.0307C47.3472 66.3732 47.8538 67.1421 48.555 67.717C49.2561 68.2919 50.0417 68.577 50.9141 68.577C51.7607 68.577 52.4384 68.3667 52.952 67.9437C53.4632 67.5207 53.7188 66.9809 53.7188 66.3195C53.7188 65.8427 53.5758 65.4455 53.292 65.1253C53.0083 64.8051 52.6448 64.5457 52.2016 64.3471C51.7583 64.1461 51.2237 63.9591 50.5905 63.7862C49.7322 63.5361 49.038 63.2931 48.5057 63.0547C47.9757 62.8163 47.5419 62.4868 47.2089 62.0638C46.8735 61.6408 46.707 61.101 46.707 60.4396C46.707 59.8343 46.8806 59.2898 47.2276 58.8084C47.5747 58.3269 48.0672 57.9507 48.705 57.6796C49.3429 57.4085 50.0793 57.2729 50.9118 57.2729C51.5684 57.2729 52.2227 57.3477 52.8723 57.4996C53.5218 57.6516 54.0448 57.8128 54.4364 57.9857V60.5354H54.2465C53.944 59.6684 53.4843 58.979 52.8723 58.4648C52.2602 57.9507 51.5168 57.6936 50.6468 57.6936C50.166 57.6936 49.7275 57.7777 49.3288 57.946C48.9302 58.1143 48.6112 58.3573 48.372 58.6775C48.1328 58.9977 48.0132 59.3739 48.0132 59.8063C48.0132 60.2386 48.1563 60.6008 48.4401 60.893C48.7238 61.1851 49.0896 61.4281 49.5399 61.6244C49.9878 61.8184 50.56 62.0194 51.2542 62.2251C52.1007 62.4751 52.7855 62.7182 53.3108 62.9565C53.8338 63.1949 54.2793 63.5361 54.6475 63.9801C55.0133 64.4242 55.1962 64.9967 55.1962 65.7002C55.1962 66.3382 55.0086 66.9108 54.6381 67.4132C54.2652 67.9157 53.7517 68.3059 53.095 68.5817C52.4361 68.8621 51.6927 69 50.8578 69Z" fill="#343434"/>
<path d="M70.1455 68.7406C70.3097 68.5467 70.448 68.3013 70.5629 68.0092C70.6755 67.717 70.7341 67.4202 70.7341 67.1164V57.7965H69.5217C68.8651 57.7965 68.3116 57.8946 67.8637 58.0886C67.4158 58.2826 67.043 58.5513 66.7451 58.8925C66.4473 59.2337 66.1682 59.6637 65.9009 60.1825H65.7109L66.1284 57.4553H77.155L77.5536 60.1825H77.3637C77.1104 59.6637 76.8337 59.2337 76.5312 58.8925C76.2286 58.5513 75.8511 58.2826 75.4032 58.0886C74.9553 57.8946 74.4089 57.7965 73.764 57.7965H72.5328V67.1164C72.5328 67.4202 72.5891 67.717 72.704 68.0092C72.8165 68.3013 72.9573 68.5443 73.1214 68.7406V68.8224H70.1478V68.7406H70.1455Z" fill="#343434"/>
<path d="M94.0735 69C92.4812 69 91.2337 68.6775 90.3308 68.0349C89.4279 67.3922 88.9753 66.4784 88.9753 65.2982V59.1613C88.9753 58.8575 88.9191 58.5607 88.8042 58.2685C88.6916 57.9764 88.5509 57.7334 88.3867 57.5371V57.4553H91.3603V57.5371C91.1961 57.731 91.0578 57.9764 90.9429 58.2685C90.8303 58.5607 90.7717 58.8598 90.7717 59.1613V65.2982C90.7717 66.3148 91.1094 67.1024 91.7847 67.6609C92.4601 68.2195 93.3536 68.4976 94.4652 68.4976C95.5768 68.4976 96.4702 68.2195 97.1456 67.6609C97.821 67.1047 98.1587 66.3172 98.1587 65.2982V59.1613C98.1587 58.8691 98.0883 58.598 97.95 58.3503C97.8116 58.1026 97.6029 57.8315 97.3238 57.5394V57.4576H99.4837V57.5394C99.2046 57.8315 98.9982 58.1026 98.8575 58.3503C98.7192 58.6004 98.6488 58.8691 98.6488 59.1613V65.2982C98.6488 66.4667 98.2384 67.3758 97.4176 68.0255C96.6039 68.6752 95.4876 69 94.0735 69Z" fill="#343434"/>
<path d="M111.543 68.7406C111.707 68.5467 111.845 68.3013 111.96 68.0092C112.075 67.717 112.132 67.4202 112.132 67.1164V59.1613C112.132 58.8575 112.075 58.5607 111.96 58.2685C111.848 57.9764 111.707 57.7334 111.543 57.5371V57.4553H116.355C117.593 57.4553 118.724 57.6446 119.746 58.0232C120.769 58.4017 121.594 59.014 122.218 59.8577C122.844 60.7014 123.156 61.7951 123.156 63.1365C123.156 64.478 122.844 65.5717 122.218 66.4153C121.592 67.259 120.769 67.8713 119.746 68.2499C118.724 68.6285 117.593 68.8178 116.355 68.8178H111.543V68.7406ZM115.921 68.4649C116.932 68.4649 117.828 68.2873 118.611 67.9297C119.394 67.5721 120.016 66.9949 120.478 66.2003C120.94 65.4057 121.17 64.3845 121.17 63.1389C121.17 61.8932 120.94 60.8766 120.478 60.0867C120.016 59.2968 119.394 58.7196 118.611 58.3573C117.828 57.9951 116.932 57.8128 115.921 57.8128C115.316 57.8128 114.653 57.8946 113.933 58.0559V68.2195C114.65 68.3831 115.314 68.4649 115.921 68.4649Z" fill="#343434"/>
<path d="M135.129 68.7406C135.293 68.5467 135.431 68.3013 135.546 68.0092C135.661 67.717 135.718 67.4202 135.718 67.1164V59.1613C135.718 58.8575 135.661 58.5607 135.546 58.2685C135.434 57.9764 135.293 57.7334 135.129 57.5371V57.4553H138.046V57.5371C137.882 57.731 137.744 57.9764 137.629 58.2685C137.514 58.5607 137.458 58.8598 137.458 59.1613V67.1164C137.458 67.4202 137.514 67.717 137.629 68.0092C137.741 68.3013 137.882 68.5443 138.046 68.7406V68.8224H135.129V68.7406Z" fill="#343434"/>
<path d="M156.142 69C154.929 69 153.862 68.757 152.941 68.2686C152.019 67.7825 151.302 67.0931 150.79 66.2073C150.279 65.3216 150.023 64.298 150.023 63.1389C150.023 61.9797 150.279 60.9584 150.79 60.0704C151.302 59.1823 152.019 58.4952 152.941 58.0091C153.862 57.523 154.929 57.2776 156.142 57.2776C157.354 57.2776 158.421 57.5207 159.343 58.0091C160.264 58.4952 160.982 59.1846 161.493 60.0704C162.004 60.9584 162.26 61.982 162.26 63.1389C162.26 64.298 162.004 65.3193 161.493 66.2073C160.982 67.0954 160.264 67.7825 159.343 68.2686C158.421 68.757 157.354 69 156.142 69ZM156.142 68.6425C156.963 68.6425 157.685 68.4088 158.311 67.9437C158.937 67.4787 159.42 66.829 159.76 65.9947C160.1 65.1604 160.271 64.2092 160.271 63.1365C160.271 62.0638 160.1 61.1127 159.76 60.2784C159.42 59.444 158.937 58.7967 158.311 58.3293C157.685 57.8642 156.963 57.6305 156.142 57.6305C155.321 57.6305 154.599 57.8642 153.973 58.3293C153.346 58.7944 152.863 59.444 152.523 60.2784C152.183 61.1127 152.012 62.0638 152.012 63.1365C152.012 64.2092 152.183 65.1604 152.523 65.9947C152.863 66.829 153.346 67.4787 153.973 67.9437C154.596 68.4111 155.319 68.6425 156.142 68.6425Z" fill="#343434"/>
<path d="M115.779 39.5701H90.3726L91.0456 38.1118C95.2292 29.5771 100.682 24.2791 105.747 20.9886L104.868 19.1027C100.121 20.7245 96.111 23.0148 93.0577 25.1251C86.74 29.4906 83.0371 34.0501 83.002 34.0945L79.5781 38.0721L97.3304 0L105.529 17.5836C109.682 16.2819 114.349 15.5013 119.402 15.742L125.145 16.0155L119.477 16.969C119.44 16.976 119.379 16.9853 119.297 16.997C117.2 17.2962 112.548 18.287 107.335 21.4537L115.779 39.5701ZM92.3213 38.3315H113.83L106.275 22.1244C101.474 25.2747 96.3244 30.3039 92.3213 38.3315ZM97.3304 2.93995L84.341 30.7947C86.0857 29.0373 88.7849 26.5741 92.3143 24.1296C95.4239 21.9772 99.5067 19.6402 104.338 17.9739L97.3304 2.93995ZM106.056 18.7171L106.807 20.3272C109.246 18.8596 111.567 17.8477 113.575 17.1536C110.918 17.4387 108.406 17.9902 106.056 18.7171Z" fill="#EB5A2E"/>
<path d="M124.039 16.105C125.191 11.7558 125.96 8.18685 125.757 8.13349C125.555 8.08013 124.456 11.5626 123.304 15.9118C122.153 20.2609 121.383 23.8299 121.586 23.8832C121.789 23.9366 122.887 20.4542 124.039 16.105Z" fill="#EB5A2E"/>
<path d="M131.573 18.0868C131.627 17.8846 128.132 16.7901 123.768 15.6422C119.404 14.4943 115.822 13.7277 115.769 13.9298C115.715 14.132 119.21 15.2265 123.574 16.3744C127.938 17.5223 131.519 18.2889 131.573 18.0868Z" fill="#EB5A2E"/>
</svg>
